CSLSans-Italic.ufo
<glyph name="period" format="2">
  <advance width="300"/>
  <unicode hex="002E"/>
  <outline>
    <contour>
      <point x="90" y="-12" type="qcurve" smooth="yes"/>
      <point x="39" y="-12"/>
      <point x="39" y="28" type="qcurve" smooth="yes"/>
      <point x="39" y="46"/>
      <point x="43" y="62" type="qcurve"/>
      <point x="51" y="117"/>
      <point x="108" y="117" type="qcurve" smooth="yes"/>
      <point x="110" y="117" type="line" smooth="yes"/>
      <point x="159" y="117"/>
      <point x="159" y="77" type="qcurve" smooth="yes"/>
      <point x="159" y="61"/>
      <point x="155" y="43" type="qcurve"/>
      <point x="147" y="-12"/>
    </contour>
  </outline>
</glyph>
<glyph name="five" format="2">
  <advance width="600"/>
  <unicode hex="0035"/>
  <outline>
    <contour>
      <point x="263" y="-12" type="qcurve" smooth="yes"/>
      <point x="178" y="-12"/>
      <point x="127" y="26" type="qcurve"/>
      <point x="76" y="62"/>
      <point x="56" y="111" type="qcurve"/>
      <point x="122" y="156" type="line"/>
      <point x="158" y="61"/>
      <point x="273" y="61" type="qcurve" smooth="yes"/>
      <point x="402" y="61"/>
      <point x="432" y="210" type="qcurve"/>
      <point x="438" y="229"/>
      <point x="438" y="256" type="qcurve" smooth="yes"/>
      <point x="438" y="365"/>
      <point x="322" y="365" type="qcurve" smooth="yes"/>
      <point x="247" y="365"/>
      <point x="185" y="296" type="qcurve"/>
      <point x="117" y="307" type="line"/>
      <point x="213" y="698" type="line"/>
      <point x="572" y="698" type="line"/>
      <point x="557" y="626" type="line"/>
      <point x="265" y="626" type="line"/>
      <point x="197" y="351" type="line"/>
      <point x="204" y="351" type="line"/>
      <point x="229" y="395"/>
      <point x="294" y="436"/>
      <point x="349" y="436" type="qcurve" smooth="yes"/>
      <point x="423" y="436"/>
      <point x="522" y="341"/>
      <point x="522" y="257" type="qcurve" smooth="yes"/>
      <point x="522" y="143"/>
      <point x="453" y="66" type="qcurve"/>
      <point x="380" y="-12"/>
    </contour>
  </outline>
</glyph>
<glyph name="six" format="2">
  <advance width="600"/>
  <unicode hex="0036"/>
  <outline>
    <contour>
      <point x="271" y="60" type="qcurve" smooth="yes"/>
      <point x="337" y="60"/>
      <point x="418" y="137"/>
      <point x="431" y="202" type="qcurve" smooth="yes"/>
      <point x="435" y="220"/>
      <point x="435" y="238" type="qcurve"/>
      <point x="431" y="363"/>
      <point x="312" y="363" type="qcurve" smooth="yes"/>
      <point x="246" y="363"/>
      <point x="165" y="286"/>
      <point x="152" y="221" type="qcurve" smooth="yes"/>
      <point x="148" y="203"/>
      <point x="148" y="185" type="qcurve"/>
      <point x="153" y="60"/>
    </contour>
    <contour>
      <point x="268" y="-12" type="qcurve" smooth="yes"/>
      <point x="172" y="-12"/>
      <point x="70" y="99"/>
      <point x="70" y="202" type="qcurve" smooth="yes"/>
      <point x="70" y="344"/>
      <point x="171" y="489" type="qcurve" smooth="yes"/>
      <point x="266" y="624"/>
      <point x="398" y="698" type="qcurve"/>
      <point x="512" y="698" type="line"/>
      <point x="233" y="526"/>
      <point x="174" y="337" type="qcurve"/>
      <point x="178" y="335" type="line"/>
      <point x="210" y="388"/>
      <point x="287" y="434"/>
      <point x="335" y="434" type="qcurve" smooth="yes"/>
      <point x="418" y="434"/>
      <point x="518" y="334"/>
      <point x="518" y="245" type="qcurve" smooth="yes"/>
      <point x="518" y="133"/>
      <point x="376" y="-12"/>
    </contour>
  </outline>
</glyph>
<glyph name="colon" format="2">
  <advance width="300"/>
  <unicode hex="003A"/>
  <outline>
    <contour>
      <point x="100" y="-12" type="qcurve" smooth="yes"/>
      <point x="49" y="-12"/>
      <point x="49" y="28" type="qcurve" smooth="yes"/>
      <point x="49" y="46"/>
      <point x="53" y="62" type="qcurve"/>
      <point x="61" y="117"/>
      <point x="118" y="117" type="qcurve" smooth="yes"/>
      <point x="120" y="117" type="line" smooth="yes"/>
      <point x="169" y="117"/>
      <point x="169" y="77" type="qcurve" smooth="yes"/>
      <point x="169" y="61"/>
      <point x="165" y="43" type="qcurve"/>
      <point x="157" y="-12"/>
    </contour>
    <contour>
      <point x="182" y="394" type="qcurve" smooth="yes"/>
      <point x="131" y="394"/>
      <point x="131" y="434" type="qcurve" smooth="yes"/>
      <point x="131" y="452"/>
      <point x="135" y="468" type="qcurve"/>
      <point x="143" y="523"/>
      <point x="200" y="523" type="qcurve" smooth="yes"/>
      <point x="202" y="523" type="line" smooth="yes"/>
      <point x="251" y="523"/>
      <point x="251" y="483" type="qcurve" smooth="yes"/>
      <point x="251" y="467"/>
      <point x="247" y="449" type="qcurve"/>
      <point x="239" y="394"/>
    </contour>
  </outline>
</glyph>
<glyph name="semicolon" format="2">
  <advance width="300"/>
  <unicode hex="003B"/>
  <outline>
    <contour>
      <point x="-18" y="-133" type="line"/>
      <point x="52" y="-71"/>
      <point x="80" y="-6" type="qcurve"/>
      <point x="47" y="3"/>
      <point x="47" y="31" type="qcurve" smooth="yes"/>
      <point x="47" y="117"/>
      <point x="118" y="117" type="qcurve" smooth="yes"/>
      <point x="167" y="117"/>
      <point x="167" y="77" type="qcurve" smooth="yes"/>
      <point x="167" y="25"/>
      <point x="127" y="-44" type="qcurve" smooth="yes"/>
      <point x="97" y="-94"/>
      <point x="47" y="-133" type="qcurve"/>
    </contour>
    <contour>
      <point x="182" y="394" type="qcurve" smooth="yes"/>
      <point x="131" y="394"/>
      <point x="131" y="434" type="qcurve" smooth="yes"/>
      <point x="131" y="452"/>
      <point x="135" y="468" type="qcurve"/>
      <point x="143" y="523"/>
      <point x="200" y="523" type="qcurve" smooth="yes"/>
      <point x="202" y="523" type="line" smooth="yes"/>
      <point x="251" y="523"/>
      <point x="251" y="483" type="qcurve" smooth="yes"/>
      <point x="251" y="467"/>
      <point x="247" y="449" type="qcurve"/>
      <point x="239" y="394"/>
    </contour>
  </outline>
</glyph>
<glyph name="J" format="2">
  <advance width="498"/>
  <unicode hex="004A"/>
  <outline>
    <contour>
      <point x="171" y="-12" type="qcurve" smooth="yes"/>
      <point x="99" y="-12"/>
      <point x="6" y="72"/>
      <point x="3" y="153" type="qcurve"/>
      <point x="77" y="168" type="line"/>
      <point x="79" y="121"/>
      <point x="127" y="61"/>
      <point x="175" y="61" type="qcurve" smooth="yes"/>
      <point x="233" y="61"/>
      <point x="299" y="130"/>
      <point x="313" y="198" type="qcurve" smooth="yes"/>
      <point x="413" y="698" type="line"/>
      <point x="495" y="698" type="line"/>
      <point x="392" y="186" type="line" smooth="yes"/>
      <point x="373" y="92"/>
      <point x="260" y="-12"/>
    </contour>
  </outline>
</glyph>
<glyph name="P" format="2">
  <advance width="588"/>
  <unicode hex="0050"/>
  <outline>
    <contour>
      <point x="379" y="370" type="line" smooth="yes"/>
      <point x="429" y="370"/>
      <point x="495" y="421"/>
      <point x="505" y="471" type="qcurve" smooth="yes"/>
      <point x="515" y="519" type="line"/>
      <point x="517" y="533"/>
      <point x="517" y="545" type="qcurve" smooth="yes"/>
      <point x="517" y="582"/>
      <point x="475" y="626"/>
      <point x="422" y="626" type="qcurve" smooth="yes"/>
      <point x="245" y="626" type="line"/>
      <point x="195" y="370" type="line"/>
    </contour>
    <contour>
      <point x="39" y="0" type="line"/>
      <point x="179" y="698" type="line"/>
      <point x="428" y="698" type="line" smooth="yes"/>
      <point x="520" y="698"/>
      <point x="601" y="603"/>
      <point x="601" y="531" type="qcurve" smooth="yes"/>
      <point x="601" y="434"/>
      <point x="475" y="298"/>
      <point x="367" y="298" type="qcurve" smooth="yes"/>
      <point x="180" y="298" type="line"/>
      <point x="120" y="0" type="line"/>
    </contour>
  </outline>
</glyph>
<glyph name="S" format="2">
  <advance width="573"/>
  <unicode hex="0053"/>
  <outline>
    <contour>
      <point x="104" y="557" type="qcurve"/>
      <point x="115" y="622"/>
      <point x="166" y="661" type="qcurve" smooth="yes"/>
      <point x="230" y="710"/>
      <point x="332" y="710" type="qcurve" smooth="yes"/>
      <point x="485" y="710"/>
      <point x="563" y="596" type="qcurve"/>
      <point x="500" y="550" type="line"/>
      <point x="471" y="590"/>
      <point x="389" y="636"/>
      <point x="328" y="636" type="qcurve" smooth="yes"/>
      <point x="261" y="636"/>
      <point x="223" y="608" type="qcurve" smooth="yes"/>
      <point x="192" y="585"/>
      <point x="186" y="545" type="qcurve"/>
      <point x="184" y="534"/>
      <point x="184" y="524" type="qcurve" smooth="yes"/>
      <point x="184" y="491"/>
      <point x="204" y="467" type="qcurve" smooth="yes"/>
      <point x="231" y="435"/>
      <point x="293" y="409" type="qcurve"/>
      <point x="346" y="385" type="line"/>
      <point x="504" y="319"/>
      <point x="504" y="198" type="qcurve" smooth="yes"/>
      <point x="504" y="185"/>
      <point x="502" y="171" type="qcurve"/>
      <point x="494" y="94"/>
      <point x="440" y="45" type="qcurve" smooth="yes"/>
      <point x="376" y="-12"/>
      <point x="263" y="-12" type="qcurve" smooth="yes"/>
      <point x="104" y="-12"/>
      <point x="16" y="110" type="qcurve"/>
      <point x="78" y="162" type="line"/>
      <point x="114" y="113"/>
      <point x="205" y="62"/>
      <point x="266" y="62" type="qcurve" smooth="yes"/>
      <point x="341" y="62"/>
      <point x="381" y="98" type="qcurve" smooth="yes"/>
      <point x="412" y="127"/>
      <point x="418" y="171" type="qcurve"/>
      <point x="420" y="182"/>
      <point x="420" y="192" type="qcurve" smooth="yes"/>
      <point x="420" y="194" type="line" smooth="yes"/>
      <point x="420" y="226"/>
      <point x="402" y="250" type="qcurve" smooth="yes"/>
      <point x="378" y="282"/>
      <point x="314" y="311" type="qcurve" smooth="yes"/>
      <point x="261" y="335" type="line" smooth="yes"/>
      <point x="172" y="375"/>
      <point x="130" y="428" type="qcurve" smooth="yes"/>
      <point x="100" y="467"/>
      <point x="100" y="519" type="qcurve" smooth="yes"/>
      <point x="100" y="537"/>
    </contour>
  </outline>
</glyph>
<glyph name="cent" format="2">
  <advance width="505"/>
  <unicode hex="00A2"/>
  <outline>
    <contour>
      <point x="271" y="456" type="line"/>
      <point x="170" y="434"/>
      <point x="146" y="312" type="qcurve" smooth="yes"/>
      <point x="129" y="229" type="line"/>
      <point x="125" y="204"/>
      <point x="125" y="181" type="qcurve" smooth="yes"/>
      <point x="125" y="139"/>
      <point x="158" y="78"/>
      <point x="192" y="63" type="qcurve"/>
    </contour>
    <contour>
      <point x="155" y="-114" type="line"/>
      <point x="178" y="-4" type="line"/>
      <point x="49" y="38"/>
      <point x="49" y="200" type="qcurve" smooth="yes"/>
      <point x="49" y="326"/>
      <point x="173" y="515"/>
      <point x="284" y="526" type="qcurve"/>
      <point x="305" y="630" type="line"/>
      <point x="373" y="630" type="line"/>
      <point x="351" y="522" type="line"/>
      <point x="446" y="498"/>
      <point x="475" y="408" type="qcurve"/>
      <point x="408" y="377" type="line"/>
      <point x="391" y="440"/>
      <point x="335" y="455" type="qcurve"/>
      <point x="256" y="55" type="line"/>
      <point x="324" y="57"/>
      <point x="375" y="158" type="qcurve"/>
      <point x="436" y="128" type="line"/>
      <point x="374" y="-4"/>
      <point x="243" y="-12" type="qcurve"/>
      <point x="223" y="-114" type="line"/>
    </contour>
  </outline>
</glyph>
<glyph name="registered" format="2">
  <advance width="469"/>
  <unicode hex="00AE"/>
  <outline>
    <contour>
      <point x="298" y="511" type="line" smooth="yes"/>
      <point x="321" y="511"/>
      <point x="326" y="532" type="qcurve"/>
      <point x="328" y="547"/>
      <point x="331" y="556"/>
      <point x="331" y="561" type="qcurve" smooth="yes"/>
      <point x="331" y="576"/>
      <point x="312" y="576" type="qcurve" smooth="yes"/>
      <point x="267" y="576" type="line"/>
      <point x="254" y="511" type="line"/>
    </contour>
    <contour>
      <point x="309" y="400" type="line"/>
      <point x="283" y="481" type="line"/>
      <point x="248" y="481" type="line"/>
      <point x="232" y="400" type="line"/>
      <point x="193" y="400" type="line"/>
      <point x="235" y="609" type="line"/>
      <point x="317" y="609" type="line" smooth="yes"/>
      <point x="345" y="609"/>
      <point x="372" y="577"/>
      <point x="372" y="556" type="qcurve" smooth="yes"/>
      <point x="372" y="530"/>
      <point x="344" y="491"/>
      <point x="320" y="485" type="qcurve"/>
      <point x="350" y="400" type="line"/>
    </contour>
    <contour>
      <point x="267" y="337" type="qcurve" smooth="yes"/>
      <point x="332" y="337"/>
      <point x="419" y="417"/>
      <point x="432" y="481" type="qcurve"/>
      <point x="434" y="493"/>
      <point x="437" y="527"/>
      <point x="437" y="532" type="qcurve" smooth="yes"/>
      <point x="437" y="594"/>
      <point x="361" y="671"/>
      <point x="302" y="671" type="qcurve" smooth="yes"/>
      <point x="237" y="671"/>
      <point x="150" y="591"/>
      <point x="137" y="527" type="qcurve"/>
      <point x="135" y="515"/>
      <point x="132" y="481"/>
      <point x="132" y="476" type="qcurve" smooth="yes"/>
      <point x="132" y="414"/>
      <point x="208" y="337"/>
    </contour>
    <contour>
      <point x="263" y="298" type="qcurve" smooth="yes"/>
      <point x="191" y="298"/>
      <point x="90" y="400"/>
      <point x="90" y="473" type="qcurve" smooth="yes"/>
      <point x="90" y="575"/>
      <point x="212" y="710"/>
      <point x="306" y="710" type="qcurve" smooth="yes"/>
      <point x="378" y="710"/>
      <point x="479" y="609"/>
      <point x="479" y="535" type="qcurve" smooth="yes"/>
      <point x="479" y="433"/>
      <point x="358" y="298"/>
    </contour>
  </outline>
</glyph>
<glyph name="threesuperior" format="2">
  <advance width="339"/>
  <unicode hex="00B3"/>
  <outline>
    <contour>
      <point x="176" y="323" type="qcurve" smooth="yes"/>
      <point x="119" y="323"/>
      <point x="56" y="364"/>
      <point x="44" y="392" type="qcurve"/>
      <point x="89" y="423" type="line"/>
      <point x="113" y="372"/>
      <point x="177" y="372" type="qcurve" smooth="yes"/>
      <point x="218" y="372"/>
      <point x="255" y="405"/>
      <point x="260" y="435" type="qcurve"/>
      <point x="261" y="440"/>
      <point x="261" y="446" type="qcurve"/>
      <point x="259" y="496"/>
      <point x="194" y="496" type="qcurve" smooth="yes"/>
      <point x="151" y="496" type="line"/>
      <point x="161" y="545" type="line"/>
      <point x="207" y="545" type="line" smooth="yes"/>
      <point x="245" y="545"/>
      <point x="266" y="563" type="qcurve"/>
      <point x="279" y="575"/>
      <point x="284" y="599" type="qcurve"/>
      <point x="286" y="614" type="line"/>
      <point x="286" y="630"/>
      <point x="259" y="655"/>
      <point x="233" y="655" type="qcurve" smooth="yes"/>
      <point x="179" y="655"/>
      <point x="141" y="607" type="qcurve"/>
      <point x="105" y="641" type="line"/>
      <point x="153" y="704"/>
      <point x="238" y="704" type="qcurve" smooth="yes"/>
      <point x="291" y="704"/>
      <point x="348" y="652"/>
      <point x="348" y="614" type="qcurve" smooth="yes"/>
      <point x="348" y="574"/>
      <point x="296" y="525"/>
      <point x="260" y="518" type="qcurve"/>
      <point x="260" y="516" type="line"/>
      <point x="322" y="505"/>
      <point x="322" y="441" type="qcurve" smooth="yes"/>
      <point x="322" y="392"/>
      <point x="242" y="323"/>
    </contour>
  </outline>
</glyph>
<glyph name="Oslash" format="2">
  <advance width="679"/>
  <unicode hex="00D8"/>
  <outline>
    <contour>
      <point x="306" y="61" type="qcurve" smooth="yes"/>
      <point x="399" y="61"/>
      <point x="523" y="183"/>
      <point x="545" y="293" type="qcurve" smooth="yes"/>
      <point x="565" y="393" type="line" smooth="yes"/>
      <point x="572" y="432"/>
      <point x="572" y="462" type="qcurve" smooth="yes"/>
      <point x="572" y="503"/>
      <point x="560" y="536" type="qcurve"/>
      <point x="184" y="106" type="line"/>
      <point x="230" y="61"/>
    </contour>
    <contour>
      <point x="523" y="592" type="line"/>
      <point x="478" y="637"/>
      <point x="401" y="637" type="qcurve" smooth="yes"/>
      <point x="308" y="637"/>
      <point x="184" y="515"/>
      <point x="162" y="405" type="qcurve" smooth="yes"/>
      <point x="142" y="305" type="line" smooth="yes"/>
      <point x="135" y="266"/>
      <point x="135" y="236" type="qcurve" smooth="yes"/>
      <point x="135" y="196"/>
      <point x="147" y="162" type="qcurve"/>
    </contour>
    <contour>
      <point x="3" y="-1" type="line"/>
      <point x="93" y="102" type="line"/>
      <point x="55" y="164"/>
      <point x="55" y="260" type="qcurve" smooth="yes"/>
      <point x="55" y="434"/>
      <point x="149" y="572" type="qcurve"/>
      <point x="195" y="635"/>
      <point x="326" y="710"/>
      <point x="409" y="710" type="qcurve" smooth="yes"/>
      <point x="507" y="710"/>
      <point x="572" y="651" type="qcurve"/>
      <point x="653" y="744" type="line"/>
      <point x="704" y="699" type="line"/>
      <point x="614" y="596" type="line"/>
      <point x="652" y="534"/>
      <point x="652" y="438" type="qcurve" smooth="yes"/>
      <point x="652" y="264"/>
      <point x="558" y="127" type="qcurve"/>
      <point x="512" y="63"/>
      <point x="381" y="-12"/>
      <point x="298" y="-12" type="qcurve" smooth="yes"/>
      <point x="201" y="-12"/>
      <point x="135" y="47" type="qcurve"/>
      <point x="54" y="-46" type="line"/>
    </contour>
  </outline>
</glyph>
<glyph name="Ucircumflex" format="2">
  <advance width="656"/>
  <unicode hex="00DB"/>
  <outline>
    <contour>
      <point x="280" y="-12" type="qcurve" smooth="yes"/>
      <point x="186" y="-12"/>
      <point x="82" y="93"/>
      <point x="82" y="189" type="qcurve" smooth="yes"/>
      <point x="82" y="236"/>
      <point x="93" y="294" type="qcurve" smooth="yes"/>
      <point x="174" y="698" type="line"/>
      <point x="255" y="698" type="line"/>
      <point x="163" y="241"/>
      <point x="162" y="230" type="qcurve"/>
      <point x="161" y="214"/>
      <point x="161" y="197" type="qcurve" smooth="yes"/>
      <point x="161" y="133"/>
      <point x="229" y="61"/>
      <point x="289" y="61" type="qcurve" smooth="yes"/>
      <point x="373" y="61"/>
      <point x="470" y="164"/>
      <point x="493" y="284" type="qcurve"/>
      <point x="576" y="698" type="line"/>
      <point x="657" y="698" type="line"/>
      <point x="573" y="278" type="line"/>
      <point x="543" y="120"/>
      <point x="405" y="-12"/>
    </contour>
    <contour>
      <point x="266" y="793" type="line"/>
      <point x="405" y="935" type="line"/>
      <point x="499" y="935" type="line"/>
      <point x="581" y="792" type="line"/>
      <point x="538" y="762" type="line"/>
      <point x="445" y="877" type="line"/>
      <point x="306" y="761" type="line"/>
    </contour>
  </outline>
</glyph>
<glyph name="aring" format="2">
  <advance width="583"/>
  <unicode hex="00E5"/>
  <outline>
    <contour>
      <point x="227" y="58" type="qcurve" smooth="yes"/>
      <point x="263" y="58"/>
      <point x="314" y="85"/>
      <point x="337" y="109" type="qcurve"/>
      <point x="388" y="159"/>
      <point x="402" y="233" type="qcurve" smooth="yes"/>
      <point x="428" y="362"/>
      <point x="428" y="369" type="qcurve" smooth="yes"/>
      <point x="428" y="398"/>
      <point x="402" y="425" type="qcurve" smooth="yes"/>
      <point x="369" y="458"/>
      <point x="312" y="458" type="qcurve" smooth="yes"/>
      <point x="246" y="458"/>
      <point x="165" y="376"/>
      <point x="150" y="301" type="qcurve" smooth="yes"/>
      <point x="135" y="226" type="line" smooth="yes"/>
      <point x="130" y="198"/>
      <point x="130" y="175" type="qcurve" smooth="yes"/>
      <point x="130" y="125"/>
      <point x="177" y="58"/>
    </contour>
    <contour>
      <point x="353" y="624" type="qcurve" smooth="yes"/>
      <point x="406" y="624"/>
      <point x="416" y="680" type="qcurve"/>
      <point x="420" y="699"/>
      <point x="420" y="711" type="qcurve" smooth="yes"/>
      <point x="420" y="758"/>
      <point x="370" y="758" type="qcurve" smooth="yes"/>
      <point x="318" y="758"/>
      <point x="307" y="702" type="qcurve" smooth="yes"/>
      <point x="303" y="683"/>
      <point x="303" y="671" type="qcurve"/>
      <point x="304" y="624"/>
    </contour>
    <contour>
      <point x="208" y="-12" type="qcurve" smooth="yes"/>
      <point x="137" y="-12"/>
      <point x="51" y="93"/>
      <point x="51" y="185" type="qcurve" smooth="yes"/>
      <point x="51" y="242"/>
      <point x="82" y="362"/>
      <point x="144" y="465"/>
      <point x="239" y="528"/>
      <point x="303" y="528" type="qcurve" smooth="yes"/>
      <point x="350" y="528"/>
      <point x="425" y="480"/>
      <point x="438" y="432" type="qcurve"/>
      <point x="442" y="432" type="line"/>
      <point x="459" y="516" type="line"/>
      <point x="536" y="516" type="line"/>
      <point x="446" y="68" type="line"/>
      <point x="519" y="68" type="line"/>
      <point x="506" y="0" type="line"/>
      <point x="437" y="0" type="line" smooth="yes"/>
      <point x="403" y="0"/>
      <point x="370" y="34"/>
      <point x="370" y="62" type="qcurve" smooth="yes"/>
      <point x="370" y="75"/>
      <point x="378" y="112" type="qcurve"/>
      <point x="375" y="112" type="line"/>
      <point x="343" y="47"/>
      <point x="265" y="-12"/>
    </contour>
    <contour>
      <point x="347" y="576" type="qcurve" smooth="yes"/>
      <point x="302" y="576"/>
      <point x="247" y="633"/>
      <point x="247" y="676" type="qcurve" smooth="yes"/>
      <point x="247" y="736"/>
      <point x="317" y="806"/>
      <point x="376" y="806" type="qcurve" smooth="yes"/>
      <point x="421" y="806"/>
      <point x="476" y="749"/>
      <point x="476" y="706" type="qcurve" smooth="yes"/>
      <point x="476" y="646"/>
      <point x="406" y="576"/>
    </contour>
  </outline>
</glyph>
<glyph name="icircumflex" format="2">
  <advance width="264"/>
  <unicode hex="00EE"/>
  <outline>
    <contour>
      <point x="120" y="0" type="line" smooth="yes"/>
      <point x="85" y="0"/>
      <point x="51" y="35"/>
      <point x="51" y="63" type="qcurve" smooth="yes"/>
      <point x="51" y="71"/>
      <point x="140" y="516" type="qcurve"/>
      <point x="217" y="516" type="line"/>
      <point x="127" y="68" type="line"/>
      <point x="200" y="68" type="line"/>
      <point x="187" y="0" type="line"/>
    </contour>
    <contour>
      <point x="41" y="622" type="line"/>
      <point x="179" y="765" type="line"/>
      <point x="273" y="765" type="line"/>
      <point x="355" y="622" type="line"/>
      <point x="312" y="591" type="line"/>
      <point x="219" y="706" type="line"/>
      <point x="80" y="590" type="line"/>
    </contour>
  </outline>
</glyph>
<glyph name="divide" format="2">
  <advance width="600"/>
  <unicode hex="00F7"/>
  <outline>
    <contour>
      <point x="263" y="54" type="qcurve" smooth="yes"/>
      <point x="213" y="54"/>
      <point x="213" y="92" type="qcurve" smooth="yes"/>
      <point x="213" y="104"/>
      <point x="217" y="120" type="qcurve"/>
      <point x="224" y="172"/>
      <point x="282" y="172" type="qcurve" smooth="yes"/>
      <point x="332" y="172"/>
      <point x="332" y="134" type="qcurve" smooth="yes"/>
      <point x="332" y="122"/>
      <point x="328" y="106" type="qcurve"/>
      <point x="322" y="54"/>
    </contour>
    <contour>
      <point x="338" y="440" type="qcurve" smooth="yes"/>
      <point x="288" y="440"/>
      <point x="288" y="478" type="qcurve" smooth="yes"/>
      <point x="288" y="490"/>
      <point x="292" y="506" type="qcurve"/>
      <point x="299" y="558"/>
      <point x="357" y="558" type="qcurve" smooth="yes"/>
      <point x="407" y="558"/>
      <point x="407" y="520" type="qcurve" smooth="yes"/>
      <point x="407" y="508"/>
      <point x="403" y="492" type="qcurve"/>
      <point x="397" y="440"/>
    </contour>
    <contour>
      <point x="77" y="273" type="line"/>
      <point x="91" y="339" type="line"/>
      <point x="541" y="339" type="line"/>
      <point x="527" y="273" type="line"/>
    </contour>
  </outline>
</glyph>
<glyph name="ebreve" format="2">
  <advance width="511"/>
  <unicode hex="0115"/>
  <outline>
    <contour>
      <point x="139" y="281" type="line"/>
      <point x="301" y="287"/>
      <point x="356" y="313" type="qcurve" smooth="yes"/>
      <point x="385" y="326"/>
      <point x="406" y="364"/>
      <point x="406" y="391" type="qcurve" smooth="yes"/>
      <point x="406" y="429"/>
      <point x="377" y="447" type="qcurve"/>
      <point x="347" y="462"/>
      <point x="311" y="462" type="qcurve" smooth="yes"/>
      <point x="251" y="462"/>
      <point x="160" y="380"/>
      <point x="145" y="310" type="qcurve" smooth="yes"/>
    </contour>
    <contour>
      <point x="244" y="-12" type="qcurve" smooth="yes"/>
      <point x="151" y="-12"/>
      <point x="49" y="98"/>
      <point x="49" y="204" type="qcurve" smooth="yes"/>
      <point x="49" y="332"/>
      <point x="124" y="430" type="qcurve" smooth="yes"/>
      <point x="159" y="476"/>
      <point x="258" y="528"/>
      <point x="319" y="528" type="qcurve" smooth="yes"/>
      <point x="385" y="528"/>
      <point x="435" y="494" type="qcurve"/>
      <point x="485" y="457"/>
      <point x="485" y="390" type="qcurve" smooth="yes"/>
      <point x="485" y="305"/>
      <point x="310" y="223"/>
      <point x="129" y="221" type="qcurve"/>
      <point x="126" y="196"/>
      <point x="126" y="179" type="qcurve" smooth="yes"/>
      <point x="126" y="124"/>
      <point x="189" y="57"/>
      <point x="249" y="57" type="qcurve" smooth="yes"/>
      <point x="341" y="57"/>
      <point x="407" y="139" type="qcurve"/>
      <point x="457" y="94" type="line"/>
      <point x="369" y="-12"/>
    </contour>
    <contour>
      <point x="337" y="596" type="qcurve" smooth="yes"/>
      <point x="270" y="596"/>
      <point x="238" y="643" type="qcurve"/>
      <point x="210" y="687"/>
      <point x="206" y="730" type="qcurve"/>
      <point x="252" y="750" type="line"/>
      <point x="262" y="728" type="line" smooth="yes"/>
      <point x="277" y="693"/>
      <point x="310" y="657"/>
      <point x="339" y="657" type="qcurve" smooth="yes"/>
      <point x="366" y="657"/>
      <point x="411" y="690"/>
      <point x="439" y="728" type="qcurve" smooth="yes"/>
      <point x="456" y="750" type="line"/>
      <point x="504" y="730" type="line"/>
      <point x="486" y="685"/>
      <point x="447" y="642" type="qcurve"/>
      <point x="402" y="596"/>
    </contour>
  </outline>
</glyph>
<glyph name="eogonek" format="2">
  <advance width="511"/>
  <unicode hex="0119"/>
  <outline>
    <contour>
      <point x="139" y="281" type="line"/>
      <point x="301" y="287"/>
      <point x="356" y="313" type="qcurve" smooth="yes"/>
      <point x="385" y="326"/>
      <point x="406" y="364"/>
      <point x="406" y="391" type="qcurve" smooth="yes"/>
      <point x="406" y="429"/>
      <point x="377" y="447" type="qcurve"/>
      <point x="347" y="462"/>
      <point x="311" y="462" type="qcurve" smooth="yes"/>
      <point x="251" y="462"/>
      <point x="160" y="380"/>
      <point x="145" y="310" type="qcurve" smooth="yes"/>
    </contour>
    <contour>
      <point x="232" y="-207" type="qcurve" smooth="yes"/>
      <point x="195" y="-207"/>
      <point x="136" y="-172"/>
      <point x="136" y="-132" type="qcurve" smooth="yes"/>
      <point x="136" y="-94"/>
      <point x="194" y="-38"/>
      <point x="245" y="-15" type="qcurve"/>
      <point x="244" y="-12" type="line"/>
      <point x="151" y="-12"/>
      <point x="49" y="98"/>
      <point x="49" y="204" type="qcurve" smooth="yes"/>
      <point x="49" y="332"/>
      <point x="124" y="430" type="qcurve" smooth="yes"/>
      <point x="159" y="476"/>
      <point x="258" y="528"/>
      <point x="319" y="528" type="qcurve" smooth="yes"/>
      <point x="385" y="528"/>
      <point x="435" y="494" type="qcurve"/>
      <point x="485" y="457"/>
      <point x="485" y="390" type="qcurve" smooth="yes"/>
      <point x="485" y="305"/>
      <point x="310" y="223"/>
      <point x="129" y="221" type="qcurve"/>
      <point x="126" y="196"/>
      <point x="126" y="179" type="qcurve" smooth="yes"/>
      <point x="126" y="124"/>
      <point x="189" y="57"/>
      <point x="249" y="57" type="qcurve" smooth="yes"/>
      <point x="341" y="57"/>
      <point x="407" y="139" type="qcurve"/>
      <point x="457" y="94" type="line"/>
      <point x="419" y="47"/>
      <point x="353" y="14" type="qcurve"/>
      <point x="204" y="-63"/>
      <point x="204" y="-122" type="qcurve" smooth="yes"/>
      <point x="204" y="-138"/>
      <point x="223" y="-153"/>
      <point x="237" y="-153" type="qcurve" smooth="yes"/>
      <point x="261" y="-153"/>
      <point x="291" y="-126" type="qcurve"/>
      <point x="328" y="-170" type="line"/>
      <point x="296" y="-207"/>
    </contour>
  </outline>
</glyph>
<glyph name="Gbreve" format="2">
  <advance width="602"/>
  <unicode hex="011E"/>
  <outline>
    <contour>
      <point x="590" y="359" type="line"/>
      <point x="567" y="243" type="line"/>
      <point x="550" y="164"/>
      <point x="487" y="64"/>
      <point x="403" y="9"/>
      <point x="314" y="-12"/>
      <point x="272" y="-12" type="qcurve" smooth="yes"/>
      <point x="228" y="-12"/>
      <point x="145" y="20"/>
      <point x="77" y="88"/>
      <point x="37" y="193"/>
      <point x="37" y="267" type="qcurve" smooth="yes"/>
      <point x="37" y="299"/>
      <point x="43" y="358"/>
      <point x="48" y="387" type="qcurve"/>
      <point x="63" y="459"/>
      <point x="123" y="577"/>
      <point x="209" y="664"/>
      <point x="319" y="710"/>
      <point x="382" y="710" type="qcurve" smooth="yes"/>
      <point x="451" y="710"/>
      <point x="540" y="662"/>
      <point x="593" y="588"/>
      <point x="604" y="551" type="qcurve"/>
      <point x="530" y="510" type="line"/>
      <point x="522" y="549"/>
      <point x="480" y="604"/>
      <point x="415" y="636"/>
      <point x="369" y="636" type="qcurve" smooth="yes"/>
      <point x="313" y="636"/>
      <point x="221" y="586"/>
      <point x="160" y="491"/>
      <point x="146" y="424" type="qcurve" smooth="yes"/>
      <point x="124" y="311" type="line"/>
      <point x="120" y="296"/>
      <point x="117" y="261"/>
      <point x="117" y="245" type="qcurve" smooth="yes"/>
      <point x="117" y="198"/>
      <point x="145" y="129"/>
      <point x="192" y="84"/>
      <point x="250" y="62"/>
      <point x="280" y="62" type="qcurve" smooth="yes"/>
      <point x="355" y="62"/>
      <point x="465" y="141"/>
      <point x="481" y="221" type="qcurve" smooth="yes"/>
      <point x="494" y="283" type="line"/>
      <point x="303" y="283" type="line"/>
      <point x="318" y="359" type="line"/>
    </contour>
    <contour>
      <point x="419" y="766" type="qcurve" smooth="yes"/>
      <point x="370" y="766"/>
      <point x="316" y="811"/>
      <point x="292" y="873"/>
      <point x="288" y="900" type="qcurve"/>
      <point x="334" y="920" type="line"/>
      <point x="344" y="898" type="line" smooth="yes"/>
      <point x="360" y="864"/>
      <point x="392" y="827"/>
      <point x="421" y="827" type="qcurve" smooth="yes"/>
      <point x="448" y="827"/>
      <point x="492" y="860"/>
      <point x="521" y="898" type="qcurve" smooth="yes"/>
      <point x="538" y="920" type="line"/>
      <point x="586" y="900" type="line"/>
      <point x="573" y="873"/>
      <point x="532" y="810"/>
      <point x="468" y="766"/>
    </contour>
  </outline>
</glyph>
<glyph name="Gdotaccent" format="2">
  <advance width="602"/>
  <unicode hex="0120"/>
  <outline>
    <contour>
      <point x="590" y="359" type="line"/>
      <point x="567" y="243" type="line"/>
      <point x="550" y="164"/>
      <point x="487" y="64"/>
      <point x="403" y="9"/>
      <point x="314" y="-12"/>
      <point x="272" y="-12" type="qcurve" smooth="yes"/>
      <point x="228" y="-12"/>
      <point x="145" y="20"/>
      <point x="77" y="88"/>
      <point x="37" y="193"/>
      <point x="37" y="267" type="qcurve" smooth="yes"/>
      <point x="37" y="299"/>
      <point x="43" y="358"/>
      <point x="48" y="387" type="qcurve"/>
      <point x="63" y="459"/>
      <point x="123" y="577"/>
      <point x="209" y="664"/>
      <point x="319" y="710"/>
      <point x="382" y="710" type="qcurve" smooth="yes"/>
      <point x="451" y="710"/>
      <point x="540" y="662"/>
      <point x="593" y="588"/>
      <point x="604" y="551" type="qcurve"/>
      <point x="530" y="510" type="line"/>
      <point x="522" y="549"/>
      <point x="480" y="604"/>
      <point x="415" y="636"/>
      <point x="369" y="636" type="qcurve" smooth="yes"/>
      <point x="313" y="636"/>
      <point x="221" y="586"/>
      <point x="160" y="491"/>
      <point x="146" y="424" type="qcurve" smooth="yes"/>
      <point x="124" y="311" type="line"/>
      <point x="120" y="296"/>
      <point x="117" y="261"/>
      <point x="117" y="245" type="qcurve" smooth="yes"/>
      <point x="117" y="198"/>
      <point x="145" y="129"/>
      <point x="192" y="84"/>
      <point x="250" y="62"/>
      <point x="280" y="62" type="qcurve" smooth="yes"/>
      <point x="355" y="62"/>
      <point x="465" y="141"/>
      <point x="481" y="221" type="qcurve" smooth="yes"/>
      <point x="494" y="283" type="line"/>
      <point x="303" y="283" type="line"/>
      <point x="318" y="359" type="line"/>
    </contour>
    <contour>
      <point x="419" y="787" type="qcurve" smooth="yes"/>
      <point x="400" y="787"/>
      <point x="377" y="805"/>
      <point x="377" y="822" type="qcurve" smooth="yes"/>
      <point x="377" y="826"/>
      <point x="379" y="835"/>
      <point x="380" y="843" type="qcurve"/>
      <point x="385" y="866"/>
      <point x="411" y="890"/>
      <point x="436" y="890" type="qcurve" smooth="yes"/>
      <point x="456" y="890"/>
      <point x="478" y="872"/>
      <point x="478" y="855" type="qcurve" smooth="yes"/>
      <point x="478" y="851"/>
      <point x="477" y="842"/>
      <point x="475" y="834" type="qcurve"/>
      <point x="471" y="812"/>
      <point x="444" y="787"/>
    </contour>
  </outline>
</glyph>
<glyph name="Gcommaaccent" format="2">
  <advance width="602"/>
  <unicode hex="0122"/>
  <outline>
    <contour>
      <point x="253" y="-66" type="qcurve" smooth="yes"/>
      <point x="275" y="-66"/>
      <point x="295" y="-85"/>
      <point x="295" y="-102" type="qcurve" smooth="yes"/>
      <point x="295" y="-106"/>
      <point x="294" y="-115"/>
      <point x="292" y="-126" type="qcurve" smooth="yes"/>
      <point x="285" y="-160"/>
      <point x="247" y="-223"/>
      <point x="222" y="-245" type="qcurve"/>
      <point x="166" y="-245" type="line"/>
      <point x="189" y="-222"/>
      <point x="212" y="-190"/>
      <point x="222" y="-169" type="qcurve"/>
      <point x="209" y="-167"/>
      <point x="194" y="-150"/>
      <point x="194" y="-136" type="qcurve" smooth="yes"/>
      <point x="194" y="-133"/>
      <point x="195" y="-123"/>
      <point x="197" y="-112" type="qcurve"/>
      <point x="202" y="-89"/>
      <point x="228" y="-66"/>
    </contour>
    <contour>
      <point x="590" y="359" type="line"/>
      <point x="567" y="243" type="line"/>
      <point x="550" y="164"/>
      <point x="487" y="64"/>
      <point x="403" y="9"/>
      <point x="314" y="-12"/>
      <point x="272" y="-12" type="qcurve" smooth="yes"/>
      <point x="228" y="-12"/>
      <point x="145" y="20"/>
      <point x="77" y="88"/>
      <point x="37" y="193"/>
      <point x="37" y="267" type="qcurve" smooth="yes"/>
      <point x="37" y="299"/>
      <point x="43" y="358"/>
      <point x="48" y="387" type="qcurve"/>
      <point x="63" y="459"/>
      <point x="123" y="577"/>
      <point x="209" y="664"/>
      <point x="319" y="710"/>
      <point x="382" y="710" type="qcurve" smooth="yes"/>
      <point x="451" y="710"/>
      <point x="540" y="662"/>
      <point x="593" y="588"/>
      <point x="604" y="551" type="qcurve"/>
      <point x="530" y="510" type="line"/>
      <point x="522" y="549"/>
      <point x="480" y="604"/>
      <point x="415" y="636"/>
      <point x="369" y="636" type="qcurve" smooth="yes"/>
      <point x="313" y="636"/>
      <point x="221" y="586"/>
      <point x="160" y="491"/>
      <point x="146" y="424" type="qcurve" smooth="yes"/>
      <point x="124" y="311" type="line"/>
      <point x="120" y="296"/>
      <point x="117" y="261"/>
      <point x="117" y="245" type="qcurve" smooth="yes"/>
      <point x="117" y="198"/>
      <point x="145" y="129"/>
      <point x="192" y="84"/>
      <point x="250" y="62"/>
      <point x="280" y="62" type="qcurve" smooth="yes"/>
      <point x="355" y="62"/>
      <point x="465" y="141"/>
      <point x="481" y="221" type="qcurve" smooth="yes"/>
      <point x="494" y="283" type="line"/>
      <point x="303" y="283" type="line"/>
      <point x="318" y="359" type="line"/>
    </contour>
  </outline>
</glyph>
<glyph name="dotlessi" format="2">
  <advance width="264"/>
  <unicode hex="0131"/>
  <outline>
    <contour>
      <point x="120" y="0" type="line" smooth="yes"/>
      <point x="85" y="0"/>
      <point x="51" y="35"/>
      <point x="51" y="63" type="qcurve" smooth="yes"/>
      <point x="51" y="71"/>
      <point x="140" y="516" type="qcurve"/>
      <point x="217" y="516" type="line"/>
      <point x="127" y="68" type="line"/>
      <point x="200" y="68" type="line"/>
      <point x="187" y="0" type="line"/>
    </contour>
  </outline>
</glyph>
<glyph name="Lcaron" format="2">
  <advance width="489"/>
  <unicode hex="013D"/>
  <outline>
    <contour>
      <point x="39" y="0" type="line"/>
      <point x="179" y="698" type="line"/>
      <point x="260" y="698" type="line"/>
      <point x="135" y="72" type="line"/>
      <point x="422" y="72" type="line"/>
      <point x="408" y="0" type="line"/>
    </contour>
    <contour>
      <point x="315" y="555" type="line"/>
      <point x="350" y="740" type="line"/>
      <point x="443" y="740" type="line"/>
      <point x="368" y="555" type="line"/>
    </contour>
  </outline>
</glyph>
<glyph name="lcaron" format="2">
  <advance width="264"/>
  <unicode hex="013E"/>
  <outline>
    <contour>
      <point x="294" y="555" type="line"/>
      <point x="329" y="740" type="line"/>
      <point x="422" y="740" type="line"/>
      <point x="347" y="555" type="line"/>
    </contour>
    <contour>
      <point x="121" y="0" type="line" smooth="yes"/>
      <point x="86" y="0"/>
      <point x="51" y="35"/>
      <point x="51" y="63" type="qcurve" smooth="yes"/>
      <point x="51" y="72"/>
      <point x="185" y="740" type="qcurve"/>
      <point x="262" y="740" type="line"/>
      <point x="127" y="68" type="line"/>
      <point x="205" y="68" type="line"/>
      <point x="192" y="0" type="line"/>
    </contour>
  </outline>
</glyph>
<glyph name="napostrophe" format="2">
  <advance width="806"/>
  <unicode hex="0149"/>
  <outline>
    <contour>
      <point x="663" y="0" type="line" smooth="yes"/>
      <point x="599" y="0"/>
      <point x="599" y="58" type="qcurve" smooth="yes"/>
      <point x="599" y="71"/>
      <point x="600" y="76" type="qcurve" smooth="yes"/>
      <point x="654" y="331"/>
      <point x="654" y="371" type="qcurve" smooth="yes"/>
      <point x="654" y="415"/>
      <point x="617" y="458"/>
      <point x="575" y="458" type="qcurve" smooth="yes"/>
      <point x="539" y="458"/>
      <point x="486" y="427"/>
      <point x="448" y="380"/>
      <point x="436" y="355" type="qcurve" smooth="yes"/>
      <point x="418" y="319"/>
      <point x="412" y="288" type="qcurve" smooth="yes"/>
      <point x="354" y="0" type="line"/>
      <point x="277" y="0" type="line"/>
      <point x="381" y="516" type="line"/>
      <point x="458" y="516" type="line"/>
      <point x="437" y="414" type="line"/>
      <point x="442" y="414" type="line"/>
      <point x="468" y="472"/>
      <point x="544" y="528"/>
      <point x="600" y="528" type="qcurve" smooth="yes"/>
      <point x="667" y="528"/>
      <point x="733" y="452"/>
      <point x="733" y="385" type="qcurve" smooth="yes"/>
      <point x="733" y="357"/>
      <point x="726" y="318" type="qcurve"/>
      <point x="676" y="68" type="line"/>
      <point x="749" y="68" type="line"/>
      <point x="736" y="0" type="line"/>
    </contour>
    <contour>
      <point x="100" y="500" type="line"/>
      <point x="170" y="562"/>
      <point x="198" y="627" type="qcurve"/>
      <point x="165" y="636"/>
      <point x="165" y="664" type="qcurve" smooth="yes"/>
      <point x="165" y="750"/>
      <point x="236" y="750" type="qcurve" smooth="yes"/>
      <point x="285" y="750"/>
      <point x="285" y="710" type="qcurve" smooth="yes"/>
      <point x="285" y="658"/>
      <point x="245" y="589" type="qcurve" smooth="yes"/>
      <point x="215" y="539"/>
      <point x="165" y="500" type="qcurve"/>
    </contour>
  </outline>
</glyph>
<glyph name="rcaron" format="2">
  <advance width="364"/>
  <unicode hex="0159"/>
  <outline>
    <contour>
      <point x="36" y="0" type="line"/>
      <point x="140" y="516" type="line"/>
      <point x="217" y="516" type="line"/>
      <point x="195" y="413" type="line"/>
      <point x="200" y="413" type="line"/>
      <point x="220" y="452"/>
      <point x="296" y="516"/>
      <point x="355" y="516" type="qcurve" smooth="yes"/>
      <point x="387" y="516" type="line"/>
      <point x="372" y="437" type="line"/>
      <point x="336" y="437" type="line" smooth="yes"/>
      <point x="264" y="437"/>
      <point x="185" y="361"/>
      <point x="175" y="307" type="qcurve"/>
      <point x="113" y="0" type="line"/>
    </contour>
    <contour>
      <point x="232" y="599" type="line"/>
      <point x="150" y="742" type="line"/>
      <point x="194" y="773" type="line"/>
      <point x="284" y="657" type="line"/>
      <point x="424" y="774" type="line"/>
      <point x="465" y="742" type="line"/>
      <point x="327" y="599" type="line"/>
    </contour>
  </outline>
</glyph>
<glyph name="tcaron" format="2">
  <advance width="320"/>
  <unicode hex="0165"/>
  <outline>
    <contour>
      <point x="137" y="0" type="line" smooth="yes"/>
      <point x="67" y="0"/>
      <point x="67" y="64" type="qcurve" smooth="yes"/>
      <point x="67" y="82"/>
      <point x="71" y="98" type="qcurve"/>
      <point x="142" y="446" type="line"/>
      <point x="66" y="446" type="line"/>
      <point x="79" y="516" type="line"/>
      <point x="118" y="516" type="line" smooth="yes"/>
      <point x="146" y="516"/>
      <point x="166" y="538"/>
      <point x="170" y="565" type="qcurve"/>
      <point x="189" y="659" type="line"/>
      <point x="260" y="659" type="line"/>
      <point x="232" y="516" type="line"/>
      <point x="341" y="516" type="line"/>
      <point x="328" y="448" type="line"/>
      <point x="219" y="448" type="line"/>
      <point x="142" y="68" type="line"/>
      <point x="243" y="68" type="line"/>
      <point x="230" y="0" type="line"/>
    </contour>
    <contour>
      <point x="308" y="567" type="line"/>
      <point x="343" y="752" type="line"/>
      <point x="436" y="752" type="line"/>
      <point x="361" y="567" type="line"/>
    </contour>
  </outline>
</glyph>
<glyph name="wcircumflex" format="2">
  <advance width="740"/>
  <unicode hex="0175"/>
  <outline>
    <contour>
      <point x="432" y="0" type="line"/>
      <point x="407" y="279" type="line"/>
      <point x="400" y="411" type="line"/>
      <point x="395" y="411" type="line"/>
      <point x="336" y="279" type="line"/>
      <point x="203" y="0" type="line"/>
      <point x="105" y="0" type="line"/>
      <point x="77" y="516" type="line"/>
      <point x="151" y="516" type="line"/>
      <point x="166" y="74" type="line"/>
      <point x="171" y="74" type="line"/>
      <point x="378" y="516" type="line"/>
      <point x="453" y="516" type="line"/>
      <point x="475" y="256" type="line"/>
      <point x="487" y="78" type="line"/>
      <point x="492" y="78" type="line"/>
      <point x="685" y="516" type="line"/>
      <point x="760" y="516" type="line"/>
      <point x="525" y="0" type="line"/>
    </contour>
    <contour>
      <point x="272" y="622" type="line"/>
      <point x="410" y="765" type="line"/>
      <point x="504" y="765" type="line"/>
      <point x="586" y="622" type="line"/>
      <point x="543" y="591" type="line"/>
      <point x="450" y="706" type="line"/>
      <point x="311" y="590" type="line"/>
    </contour>
  </outline>
</glyph>
<glyph name="florin" format="2">
  <advance width="482"/>
  <unicode hex="0192"/>
  <outline>
    <contour>
      <point x="-73" y="-134" type="line"/>
      <point x="-60" y="-66" type="line"/>
      <point x="86" y="-66" type="line"/>
      <point x="185" y="304" type="line"/>
      <point x="59" y="304" type="line"/>
      <point x="73" y="372" type="line"/>
      <point x="205" y="372" type="line"/>
      <point x="235" y="480"/>
      <point x="293" y="698"/>
      <point x="401" y="698" type="qcurve" smooth="yes"/>
      <point x="521" y="698" type="line"/>
      <point x="507" y="630" type="line"/>
      <point x="356" y="630" type="line"/>
      <point x="286" y="372" type="line"/>
      <point x="453" y="372" type="line"/>
      <point x="439" y="304" type="line"/>
      <point x="266" y="304" type="line"/>
      <point x="177" y="-24" type="line" smooth="yes"/>
      <point x="162" y="-81"/>
      <point x="98" y="-134"/>
      <point x="40" y="-134" type="qcurve" smooth="yes"/>
    </contour>
  </outline>
</glyph>
<glyph name="commaturnedmod" format="2">
  <advance width="600"/>
  <unicode hex="02BB"/>
  <outline>
    <contour>
      <point x="315" y="595" type="qcurve"/>
      <point x="273" y="597"/>
      <point x="273" y="631" type="qcurve" smooth="yes"/>
      <point x="273" y="636"/>
      <point x="274" y="643"/>
      <point x="276" y="652"/>
      <point x="276" y="655" type="qcurve"/>
      <point x="293" y="727"/>
      <point x="346" y="774" type="qcurve"/>
      <point x="402" y="774" type="line"/>
      <point x="379" y="752"/>
      <point x="355" y="718"/>
      <point x="346" y="698" type="qcurve"/>
      <point x="374" y="694"/>
      <point x="374" y="665" type="qcurve" smooth="yes"/>
      <point x="374" y="657" type="line"/>
      <point x="371" y="641" type="line" smooth="yes"/>
      <point x="362" y="595"/>
    </contour>
  </outline>
</glyph>
<glyph name="commaaboverightcomb" format="2">
  <unicode hex="0315"/>
  <outline>
    <contour>
      <point x="-30" y="555" type="line"/>
      <point x="5" y="740" type="line"/>
      <point x="98" y="740" type="line"/>
      <point x="23" y="555" type="line"/>
    </contour>
  </outline>
</glyph>
<glyph name="cedillacomb" format="2">
  <unicode hex="0327"/>
  <outline>
    <contour>
      <point x="-10" y="-207" type="qcurve" smooth="yes"/>
      <point x="-48" y="-207"/>
      <point x="-100" y="-185"/>
      <point x="-111" y="-170" type="qcurve"/>
      <point x="-71" y="-129" type="line"/>
      <point x="-64" y="-139"/>
      <point x="-34" y="-154"/>
      <point x="-12" y="-154" type="qcurve"/>
      <point x="34" y="-149"/>
      <point x="34" y="-118" type="qcurve" smooth="yes"/>
      <point x="34" y="-102"/>
      <point x="11" y="-83"/>
      <point x="-21" y="-79" type="qcurve" smooth="yes"/>
      <point x="-47" y="-76" type="line"/>
      <point x="-18" y="20" type="line"/>
      <point x="32" y="20" type="line"/>
      <point x="6" y="-62" type="line"/>
      <point x="8" y="-64" type="line"/>
      <point x="14" y="-63" type="line"/>
      <point x="23" y="-60"/>
      <point x="39" y="-60" type="qcurve" smooth="yes"/>
      <point x="98" y="-60"/>
      <point x="98" y="-116" type="qcurve" smooth="yes"/>
      <point x="98" y="-158"/>
      <point x="38" y="-207"/>
    </contour>
  </outline>
</glyph>
<glyph name="Beta" format="2">
  <advance width="627"/>
  <unicode hex="0392"/>
  <outline>
    <contour>
      <point x="332" y="72" type="line" smooth="yes"/>
      <point x="384" y="72"/>
      <point x="456" y="127"/>
      <point x="467" y="184" type="qcurve" smooth="yes"/>
      <point x="472" y="210"/>
      <point x="476" y="235"/>
      <point x="476" y="242" type="qcurve" smooth="yes"/>
      <point x="476" y="281"/>
      <point x="424" y="324"/>
      <point x="374" y="324" type="qcurve" smooth="yes"/>
      <point x="184" y="324" type="line"/>
      <point x="134" y="72" type="line"/>
    </contour>
    <contour>
      <point x="367" y="394" type="line" smooth="yes"/>
      <point x="423" y="394"/>
      <point x="496" y="441"/>
      <point x="507" y="494" type="qcurve" smooth="yes"/>
      <point x="512" y="517"/>
      <point x="514" y="542"/>
      <point x="514" y="549" type="qcurve" smooth="yes"/>
      <point x="514" y="585"/>
      <point x="470" y="626"/>
      <point x="425" y="626" type="qcurve" smooth="yes"/>
      <point x="244" y="626" type="line"/>
      <point x="198" y="394" type="line"/>
    </contour>
    <contour>
      <point x="179" y="698" type="line"/>
      <point x="436" y="698" type="line" smooth="yes"/>
      <point x="517" y="698"/>
      <point x="603" y="618"/>
      <point x="603" y="549" type="qcurve" smooth="yes"/>
      <point x="603" y="517"/>
      <point x="584" y="458"/>
      <point x="548" y="410"/>
      <point x="495" y="375"/>
      <point x="461" y="367" type="qcurve"/>
      <point x="460" y="362" type="line"/>
      <point x="508" y="351"/>
      <point x="561" y="292"/>
      <point x="561" y="238" type="qcurve" smooth="yes"/>
      <point x="561" y="189"/>
      <point x="526" y="103"/>
      <point x="465" y="38"/>
      <point x="382" y="0"/>
      <point x="333" y="0" type="qcurve" smooth="yes"/>
      <point x="39" y="0" type="line"/>
    </contour>
  </outline>
</glyph>
<glyph name="etatonos" format="2">
  <advance width="574"/>
  <unicode hex="03AE"/>
  <outline>
    <contour>
      <point x="49" y="0" type="line"/>
      <point x="139" y="448" type="line"/>
      <point x="66" y="448" type="line"/>
      <point x="79" y="516" type="line"/>
      <point x="149" y="516" type="line" smooth="yes"/>
      <point x="182" y="516"/>
      <point x="215" y="481"/>
      <point x="215" y="453" type="qcurve" smooth="yes"/>
      <point x="215" y="443"/>
      <point x="211" y="424" type="qcurve" smooth="yes"/>
      <point x="209" y="414" type="line"/>
      <point x="214" y="414" type="line"/>
      <point x="241" y="472"/>
      <point x="316" y="528"/>
      <point x="372" y="528" type="qcurve" smooth="yes"/>
      <point x="439" y="528"/>
      <point x="505" y="452"/>
      <point x="505" y="385" type="qcurve" smooth="yes"/>
      <point x="505" y="371"/>
      <point x="502" y="337"/>
      <point x="498" y="318" type="qcurve" smooth="yes"/>
      <point x="394" y="-200" type="line"/>
      <point x="317" y="-200" type="line"/>
      <point x="421" y="318" type="line" smooth="yes"/>
      <point x="424" y="333"/>
      <point x="426" y="362"/>
      <point x="426" y="371" type="qcurve" smooth="yes"/>
      <point x="426" y="415"/>
      <point x="389" y="458"/>
      <point x="347" y="458" type="qcurve" smooth="yes"/>
      <point x="293" y="458"/>
      <point x="252" y="417" type="qcurve" smooth="yes"/>
      <point x="226" y="391"/>
      <point x="190" y="319"/>
      <point x="184" y="288" type="qcurve" smooth="yes"/>
      <point x="126" y="0" type="line"/>
    </contour>
    <contour>
      <point x="382" y="585" type="line"/>
      <point x="330" y="597" type="line"/>
      <point x="393" y="780" type="line"/>
      <point x="467" y="762" type="line"/>
    </contour>
  </outline>
</glyph>
<glyph name="delta" format="2">
  <advance width="550"/>
  <unicode hex="03B4"/>
  <outline>
    <contour>
      <point x="423" y="331" type="qcurve" smooth="yes"/>
      <point x="423" y="372"/>
      <point x="394" y="442"/>
      <point x="354" y="488" type="qcurve"/>
      <point x="312" y="483"/>
      <point x="244" y="450"/>
      <point x="190" y="397"/>
      <point x="152" y="326"/>
      <point x="142" y="283" type="qcurve" smooth="yes"/>
      <point x="134" y="247"/>
      <point x="125" y="192"/>
      <point x="125" y="178" type="qcurve" smooth="yes"/>
      <point x="125" y="124"/>
      <point x="186" y="57"/>
      <point x="245" y="57" type="qcurve" smooth="yes"/>
      <point x="301" y="57"/>
      <point x="384" y="134"/>
      <point x="401" y="201" type="qcurve" smooth="yes"/>
      <point x="411" y="238"/>
      <point x="423" y="310"/>
    </contour>
    <contour>
      <point x="341" y="672" type="line"/>
      <point x="258" y="677" type="line"/>
      <point x="257" y="673" type="line"/>
      <point x="360" y="580" type="line" smooth="yes"/>
      <point x="399" y="545"/>
      <point x="453" y="483"/>
      <point x="486" y="423"/>
      <point x="501" y="358"/>
      <point x="501" y="320" type="qcurve" smooth="yes"/>
      <point x="501" y="253"/>
      <point x="462" y="132"/>
      <point x="391" y="41"/>
      <point x="293" y="-12"/>
      <point x="235" y="-12" type="qcurve" smooth="yes"/>
      <point x="194" y="-12"/>
      <point x="126" y="15"/>
      <point x="77" y="68"/>
      <point x="49" y="147"/>
      <point x="49" y="200" type="qcurve" smooth="yes"/>
      <point x="49" y="263"/>
      <point x="89" y="377"/>
      <point x="161" y="464"/>
      <point x="261" y="516"/>
      <point x="320" y="516" type="qcurve"/>
      <point x="321" y="521" type="line"/>
      <point x="186" y="651" type="line"/>
      <point x="203" y="740" type="line"/>
      <point x="560" y="740" type="line"/>
      <point x="546" y="672" type="line"/>
    </contour>
  </outline>
</glyph>
<glyph name="kappa" format="2">
  <advance width="533"/>
  <unicode hex="03BA"/>
  <outline>
    <contour>
      <point x="227" y="245" type="line"/>
      <point x="148" y="174" type="line"/>
      <point x="113" y="0" type="line"/>
      <point x="36" y="0" type="line"/>
      <point x="140" y="516" type="line"/>
      <point x="217" y="516" type="line"/>
      <point x="167" y="267" type="line"/>
      <point x="171" y="267" type="line"/>
      <point x="412" y="488" type="line" smooth="yes"/>
      <point x="429" y="503"/>
      <point x="463" y="516"/>
      <point x="487" y="516" type="qcurve" smooth="yes"/>
      <point x="536" y="516" type="line"/>
      <point x="522" y="448" type="line"/>
      <point x="464" y="448" type="line"/>
      <point x="286" y="286" type="line"/>
      <point x="445" y="0" type="line"/>
      <point x="357" y="0" type="line"/>
    </contour>
  </outline>
</glyph>
<glyph name="iotadieresis" format="2">
  <advance width="279"/>
  <unicode hex="03CA"/>
  <outline>
    <contour>
      <point x="308" y="0" type="line"/>
      <point x="214" y="0" type="line" smooth="yes"/>
      <point x="179" y="0"/>
      <point x="144" y="35"/>
      <point x="144" y="63" type="qcurve" smooth="yes"/>
      <point x="144" y="72"/>
      <point x="147" y="87" type="qcurve" smooth="yes"/>
      <point x="233" y="516" type="line"/>
      <point x="310" y="516" type="line"/>
      <point x="220" y="68" type="line"/>
      <point x="321" y="68" type="line"/>
    </contour>
    <contour>
      <point x="211" y="618" type="qcurve" smooth="yes"/>
      <point x="191" y="618"/>
      <point x="169" y="636"/>
      <point x="169" y="653" type="qcurve" smooth="yes"/>
      <point x="169" y="657"/>
      <point x="170" y="666"/>
      <point x="172" y="674" type="qcurve"/>
      <point x="181" y="721"/>
      <point x="228" y="721" type="qcurve" smooth="yes"/>
      <point x="248" y="721"/>
      <point x="270" y="703"/>
      <point x="270" y="686" type="qcurve" smooth="yes"/>
      <point x="270" y="681"/>
      <point x="267" y="665" type="qcurve" smooth="yes"/>
      <point x="258" y="618"/>
    </contour>
    <contour>
      <point x="393" y="618" type="qcurve" smooth="yes"/>
      <point x="373" y="618"/>
      <point x="351" y="636"/>
      <point x="351" y="653" type="qcurve" smooth="yes"/>
      <point x="351" y="657"/>
      <point x="352" y="666"/>
      <point x="354" y="674" type="qcurve"/>
      <point x="363" y="721"/>
      <point x="410" y="721" type="qcurve" smooth="yes"/>
      <point x="430" y="721"/>
      <point x="452" y="703"/>
      <point x="452" y="686" type="qcurve" smooth="yes"/>
      <point x="452" y="681"/>
      <point x="449" y="665" type="qcurve" smooth="yes"/>
      <point x="440" y="618"/>
    </contour>
  </outline>
</glyph>
<glyph name="Iegravecyr" format="2">
  <advance width="565"/>
  <unicode hex="0400"/>
  <outline>
    <contour>
      <point x="39" y="0" type="line"/>
      <point x="179" y="698" type="line"/>
      <point x="590" y="698" type="line"/>
      <point x="575" y="626" type="line"/>
      <point x="246" y="626" type="line"/>
      <point x="199" y="390" type="line"/>
      <point x="495" y="390" type="line"/>
      <point x="481" y="318" type="line"/>
      <point x="184" y="318" type="line"/>
      <point x="135" y="72" type="line"/>
      <point x="481" y="72" type="line"/>
      <point x="467" y="0" type="line"/>
    </contour>
    <contour>
      <point x="300" y="916" type="line"/>
      <point x="368" y="948" type="line"/>
      <point x="430" y="776" type="line"/>
      <point x="384" y="755" type="line"/>
    </contour>
  </outline>
</glyph>
<glyph name="Zecyr" format="2">
  <advance width="571"/>
  <unicode hex="0417"/>
  <outline>
    <contour>
      <point x="245" y="-12" type="qcurve" smooth="yes"/>
      <point x="167" y="-12"/>
      <point x="47" y="49"/>
      <point x="11" y="111" type="qcurve"/>
      <point x="74" y="158" type="line"/>
      <point x="131" y="61"/>
      <point x="247" y="61" type="qcurve" smooth="yes"/>
      <point x="307" y="61"/>
      <point x="394" y="119"/>
      <point x="409" y="184" type="qcurve" smooth="yes"/>
      <point x="414" y="207"/>
      <point x="414" y="231" type="qcurve" smooth="yes"/>
      <point x="414" y="322"/>
      <point x="290" y="322" type="qcurve" smooth="yes"/>
      <point x="193" y="322" type="line"/>
      <point x="208" y="394" type="line"/>
      <point x="290" y="394" type="line" smooth="yes"/>
      <point x="431" y="394"/>
      <point x="454" y="505" type="qcurve" smooth="yes"/>
      <point x="458" y="525"/>
      <point x="458" y="547" type="qcurve" smooth="yes"/>
      <point x="458" y="589"/>
      <point x="400" y="637"/>
      <point x="341" y="637" type="qcurve" smooth="yes"/>
      <point x="231" y="637"/>
      <point x="167" y="554" type="qcurve"/>
      <point x="113" y="604" type="line"/>
      <point x="202" y="710"/>
      <point x="348" y="710" type="qcurve" smooth="yes"/>
      <point x="446" y="710"/>
      <point x="547" y="627"/>
      <point x="547" y="552" type="qcurve" smooth="yes"/>
      <point x="547" y="408"/>
      <point x="394" y="362" type="qcurve"/>
      <point x="393" y="357" type="line"/>
      <point x="499" y="330"/>
      <point x="499" y="228" type="qcurve" smooth="yes"/>
      <point x="499" y="120"/>
      <point x="355" y="-12"/>
    </contour>
  </outline>
</glyph>
<glyph name="Ucyr" format="2">
  <advance width="551"/>
  <unicode hex="0423"/>
  <outline>
    <contour>
      <point x="73" y="0" type="line"/>
      <point x="87" y="72" type="line"/>
      <point x="184" y="72" type="line"/>
      <point x="233" y="158" type="line"/>
      <point x="107" y="698" type="line"/>
      <point x="190" y="698" type="line"/>
      <point x="262" y="391" type="line"/>
      <point x="286" y="256" type="line"/>
      <point x="292" y="256" type="line"/>
      <point x="364" y="393" type="line"/>
      <point x="537" y="698" type="line"/>
      <point x="621" y="698" type="line"/>
      <point x="263" y="72" type="line" smooth="yes"/>
      <point x="239" y="30"/>
      <point x="191" y="0"/>
      <point x="147" y="0" type="qcurve" smooth="yes"/>
    </contour>
  </outline>
</glyph>
<glyph name="vecyr" format="2">
  <advance width="536"/>
  <unicode hex="0432"/>
  <outline>
    <contour>
      <point x="280" y="66" type="line" smooth="yes"/>
      <point x="322" y="66"/>
      <point x="374" y="107"/>
      <point x="382" y="143" type="qcurve" smooth="yes"/>
      <point x="387" y="165"/>
      <point x="387" y="177" type="qcurve"/>
      <point x="384" y="236"/>
      <point x="316" y="236" type="qcurve" smooth="yes"/>
      <point x="160" y="236" type="line"/>
      <point x="126" y="66" type="line"/>
    </contour>
    <contour>
      <point x="318" y="300" type="line" smooth="yes"/>
      <point x="351" y="300"/>
      <point x="406" y="338"/>
      <point x="415" y="376" type="qcurve" smooth="yes"/>
      <point x="418" y="388"/>
      <point x="418" y="406" type="qcurve" smooth="yes"/>
      <point x="418" y="426"/>
      <point x="381" y="450"/>
      <point x="352" y="450" type="qcurve" smooth="yes"/>
      <point x="204" y="450" type="line"/>
      <point x="174" y="300" type="line"/>
    </contour>
    <contour>
      <point x="36" y="0" type="line"/>
      <point x="141" y="516" type="line"/>
      <point x="365" y="516" type="line" smooth="yes"/>
      <point x="425" y="516"/>
      <point x="494" y="457"/>
      <point x="494" y="406" type="qcurve" smooth="yes"/>
      <point x="494" y="353"/>
      <point x="428" y="286"/>
      <point x="373" y="274" type="qcurve"/>
      <point x="372" y="271" type="line"/>
      <point x="463" y="253"/>
      <point x="463" y="176" type="qcurve" smooth="yes"/>
      <point x="463" y="112"/>
      <point x="415" y="56" type="qcurve"/>
      <point x="363" y="0"/>
      <point x="288" y="0" type="qcurve" smooth="yes"/>
    </contour>
  </outline>
</glyph>
<glyph name="emcyr" format="2">
  <advance width="679"/>
  <unicode hex="043C"/>
  <outline>
    <contour>
      <point x="465" y="0" type="line"/>
      <point x="549" y="416" type="line"/>
      <point x="544" y="416" type="line"/>
      <point x="505" y="361" type="line"/>
      <point x="309" y="108" type="line"/>
      <point x="218" y="360"/>
      <point x="199" y="416" type="qcurve"/>
      <point x="194" y="416" type="line"/>
      <point x="110" y="0" type="line"/>
      <point x="36" y="0" type="line"/>
      <point x="140" y="516" type="line"/>
      <point x="236" y="516" type="line"/>
      <point x="334" y="245" type="line"/>
      <point x="337" y="245" type="line"/>
      <point x="547" y="516" type="line"/>
      <point x="643" y="516" type="line"/>
      <point x="539" y="0" type="line"/>
    </contour>
  </outline>
</glyph>
<glyph name="Kaverticalstrokecyr" format="2">
  <advance width="665"/>
  <unicode hex="049C"/>
  <outline>
    <contour>
      <point x="529" y="0" type="line" smooth="yes"/>
      <point x="475" y="0"/>
      <point x="452" y="64" type="qcurve"/>
      <point x="345" y="319" type="line"/>
      <point x="301" y="319" type="line"/>
      <point x="270" y="164" type="line"/>
      <point x="209" y="164" type="line"/>
      <point x="240" y="319" type="line"/>
      <point x="183" y="319" type="line"/>
      <point x="120" y="0" type="line"/>
      <point x="39" y="0" type="line"/>
      <point x="179" y="698" type="line"/>
      <point x="260" y="698" type="line"/>
      <point x="198" y="389" type="line"/>
      <point x="254" y="389" type="line"/>
      <point x="285" y="544" type="line"/>
      <point x="346" y="544" type="line"/>
      <point x="315" y="389" type="line"/>
      <point x="359" y="389" type="line"/>
      <point x="537" y="636" type="line" smooth="yes"/>
      <point x="563" y="672"/>
      <point x="608" y="698"/>
      <point x="637" y="698" type="qcurve" smooth="yes"/>
      <point x="687" y="698" type="line"/>
      <point x="673" y="626" type="line"/>
      <point x="616" y="626" type="line"/>
      <point x="454" y="401" type="line" smooth="yes"/>
      <point x="437" y="378"/>
      <point x="409" y="360"/>
      <point x="391" y="357" type="qcurve"/>
      <point x="390" y="352" type="line"/>
      <point x="407" y="346"/>
      <point x="427" y="322"/>
      <point x="438" y="298" type="qcurve"/>
      <point x="533" y="72" type="line"/>
      <point x="589" y="72" type="line"/>
      <point x="575" y="0" type="line"/>
    </contour>
  </outline>
</glyph>
<glyph name="zhebrevecyr" format="2">
  <advance width="753"/>
  <unicode hex="04C2"/>
  <outline>
    <contour>
      <point x="619" y="0" type="line" smooth="yes"/>
      <point x="567" y="0"/>
      <point x="513" y="63"/>
      <point x="513" y="147" type="qcurve" smooth="yes"/>
      <point x="513" y="161"/>
      <point x="516" y="189" type="qcurve"/>
      <point x="517" y="202" type="line" smooth="yes"/>
      <point x="518" y="215"/>
      <point x="521" y="235" type="qcurve"/>
      <point x="409" y="235" type="line"/>
      <point x="362" y="0" type="line"/>
      <point x="287" y="0" type="line"/>
      <point x="334" y="235" type="line"/>
      <point x="223" y="235" type="line"/>
      <point x="196" y="101"/>
      <point x="114" y="0"/>
      <point x="46" y="0" type="qcurve" smooth="yes"/>
      <point x="-10" y="0" type="line"/>
      <point x="4" y="68" type="line"/>
      <point x="90" y="68" type="line"/>
      <point x="123" y="105"/>
      <point x="152" y="237" type="qcurve"/>
      <point x="169" y="324"/>
      <point x="169" y="372" type="qcurve" smooth="yes"/>
      <point x="169" y="425"/>
      <point x="158" y="448" type="qcurve"/>
      <point x="88" y="448" type="line"/>
      <point x="102" y="516" type="line"/>
      <point x="134" y="516" type="line" smooth="yes"/>
      <point x="186" y="516"/>
      <point x="240" y="453"/>
      <point x="240" y="369" type="qcurve" smooth="yes"/>
      <point x="240" y="345"/>
      <point x="234" y="298" type="qcurve"/>
      <point x="347" y="298" type="line"/>
      <point x="391" y="516" type="line"/>
      <point x="466" y="516" type="line"/>
      <point x="422" y="298" type="line"/>
      <point x="533" y="298" type="line"/>
      <point x="558" y="419"/>
      <point x="641" y="516"/>
      <point x="708" y="516" type="qcurve" smooth="yes"/>
      <point x="755" y="516" type="line"/>
      <point x="741" y="448" type="line"/>
      <point x="664" y="448" type="line"/>
      <point x="624" y="397"/>
      <point x="601" y="279" type="qcurve"/>
      <point x="584" y="186"/>
      <point x="584" y="144" type="qcurve" smooth="yes"/>
      <point x="584" y="92"/>
      <point x="595" y="68" type="qcurve"/>
      <point x="673" y="68" type="line"/>
      <point x="659" y="0" type="line"/>
    </contour>
    <contour>
      <point x="447" y="596" type="qcurve" smooth="yes"/>
      <point x="356" y="596"/>
      <point x="329" y="674" type="qcurve" smooth="yes"/>
      <point x="315" y="715" type="line"/>
      <point x="382" y="743" type="line"/>
      <point x="404" y="661" type="line"/>
      <point x="432" y="655"/>
      <point x="454" y="655" type="qcurve" smooth="yes"/>
      <point x="478" y="655"/>
      <point x="499" y="661" type="qcurve"/>
      <point x="551" y="743" type="line"/>
      <point x="612" y="709" type="line"/>
      <point x="586" y="674" type="line"/>
      <point x="531" y="596"/>
    </contour>
  </outline>
</glyph>
<glyph name="schwacyr" format="2">
  <advance width="511"/>
  <unicode hex="04D9"/>
  <outline>
    <contour>
      <point x="200" y="54" type="qcurve" smooth="yes"/>
      <point x="260" y="54"/>
      <point x="351" y="135"/>
      <point x="366" y="206" type="qcurve" smooth="yes"/>
      <point x="372" y="235" type="line"/>
      <point x="210" y="230"/>
      <point x="156" y="204" type="qcurve"/>
      <point x="127" y="191"/>
      <point x="105" y="152"/>
      <point x="105" y="125" type="qcurve" smooth="yes"/>
      <point x="105" y="87"/>
      <point x="134" y="69" type="qcurve"/>
      <point x="164" y="54"/>
    </contour>
    <contour>
      <point x="192" y="-12" type="qcurve" smooth="yes"/>
      <point x="126" y="-12"/>
      <point x="76" y="22" type="qcurve"/>
      <point x="26" y="59"/>
      <point x="26" y="126" type="qcurve" smooth="yes"/>
      <point x="26" y="212"/>
      <point x="201" y="293"/>
      <point x="382" y="295" type="qcurve"/>
      <point x="385" y="321"/>
      <point x="385" y="337" type="qcurve" smooth="yes"/>
      <point x="385" y="392"/>
      <point x="322" y="459"/>
      <point x="262" y="459" type="qcurve" smooth="yes"/>
      <point x="170" y="459"/>
      <point x="104" y="377" type="qcurve"/>
      <point x="54" y="422" type="line"/>
      <point x="142" y="528"/>
      <point x="267" y="528" type="qcurve" smooth="yes"/>
      <point x="360" y="528"/>
      <point x="462" y="418"/>
      <point x="462" y="312" type="qcurve" smooth="yes"/>
      <point x="462" y="185"/>
      <point x="388" y="86" type="qcurve"/>
      <point x="352" y="41"/>
      <point x="253" y="-12"/>
    </contour>
  </outline>
</glyph>
<glyph name="Chedieresiscyr" format="2">
  <advance width="622"/>
  <unicode hex="04F4"/>
  <outline>
    <contour>
      <point x="398" y="0" type="line"/>
      <point x="453" y="277" type="line"/>
      <point x="449" y="277" type="line"/>
      <point x="383" y="251"/>
      <point x="299" y="251" type="qcurve" smooth="yes"/>
      <point x="98" y="251"/>
      <point x="98" y="429" type="qcurve" smooth="yes"/>
      <point x="98" y="477"/>
      <point x="113" y="545" type="qcurve"/>
      <point x="144" y="698" type="line"/>
      <point x="225" y="698" type="line"/>
      <point x="189" y="520" type="line"/>
      <point x="177" y="469"/>
      <point x="177" y="437" type="qcurve" smooth="yes"/>
      <point x="177" y="377"/>
      <point x="244" y="323"/>
      <point x="311" y="323" type="qcurve" smooth="yes"/>
      <point x="409" y="323"/>
      <point x="468" y="348" type="qcurve"/>
      <point x="538" y="698" type="line"/>
      <point x="619" y="698" type="line"/>
      <point x="479" y="0" type="line"/>
    </contour>
    <contour>
      <point x="308" y="787" type="qcurve"/>
      <point x="266" y="788"/>
      <point x="266" y="822" type="qcurve" smooth="yes"/>
      <point x="266" y="827"/>
      <point x="269" y="845" type="qcurve"/>
      <point x="279" y="892"/>
      <point x="325" y="892" type="qcurve" smooth="yes"/>
      <point x="367" y="892"/>
      <point x="367" y="857" type="qcurve" smooth="yes"/>
      <point x="367" y="853"/>
      <point x="364" y="834" type="qcurve"/>
      <point x="355" y="787"/>
    </contour>
    <contour>
      <point x="490" y="787" type="qcurve"/>
      <point x="448" y="788"/>
      <point x="448" y="822" type="qcurve" smooth="yes"/>
      <point x="448" y="827"/>
      <point x="451" y="845" type="qcurve"/>
      <point x="461" y="892"/>
      <point x="507" y="892" type="qcurve" smooth="yes"/>
      <point x="549" y="892"/>
      <point x="549" y="857" type="qcurve" smooth="yes"/>
      <point x="549" y="853"/>
      <point x="546" y="834" type="qcurve"/>
      <point x="537" y="787"/>
    </contour>
  </outline>
</glyph>
<glyph name="ecircumflexdotbelow" format="2">
  <advance width="511"/>
  <unicode hex="1EC7"/>
  <outline>
    <contour>
      <point x="139" y="281" type="line"/>
      <point x="301" y="287"/>
      <point x="356" y="313" type="qcurve" smooth="yes"/>
      <point x="385" y="326"/>
      <point x="406" y="364"/>
      <point x="406" y="391" type="qcurve" smooth="yes"/>
      <point x="406" y="429"/>
      <point x="377" y="447" type="qcurve"/>
      <point x="347" y="462"/>
      <point x="311" y="462" type="qcurve" smooth="yes"/>
      <point x="251" y="462"/>
      <point x="160" y="380"/>
      <point x="145" y="310" type="qcurve" smooth="yes"/>
    </contour>
    <contour>
      <point x="211" y="-169" type="qcurve"/>
      <point x="169" y="-168"/>
      <point x="169" y="-134" type="qcurve" smooth="yes"/>
      <point x="169" y="-124"/>
      <point x="172" y="-113" type="qcurve"/>
      <point x="182" y="-66"/>
      <point x="228" y="-66" type="qcurve" smooth="yes"/>
      <point x="270" y="-66"/>
      <point x="270" y="-101" type="qcurve" smooth="yes"/>
      <point x="270" y="-105"/>
      <point x="267" y="-122" type="qcurve" smooth="yes"/>
      <point x="258" y="-169"/>
    </contour>
    <contour>
      <point x="177" y="622" type="line"/>
      <point x="315" y="765" type="line"/>
      <point x="409" y="765" type="line"/>
      <point x="491" y="622" type="line"/>
      <point x="448" y="591" type="line"/>
      <point x="355" y="706" type="line"/>
      <point x="216" y="590" type="line"/>
    </contour>
    <contour>
      <point x="244" y="-12" type="qcurve" smooth="yes"/>
      <point x="151" y="-12"/>
      <point x="49" y="98"/>
      <point x="49" y="204" type="qcurve" smooth="yes"/>
      <point x="49" y="332"/>
      <point x="124" y="430" type="qcurve" smooth="yes"/>
      <point x="159" y="476"/>
      <point x="258" y="528"/>
      <point x="319" y="528" type="qcurve" smooth="yes"/>
      <point x="385" y="528"/>
      <point x="435" y="494" type="qcurve"/>
      <point x="485" y="457"/>
      <point x="485" y="390" type="qcurve" smooth="yes"/>
      <point x="485" y="305"/>
      <point x="310" y="223"/>
      <point x="129" y="221" type="qcurve"/>
      <point x="126" y="196"/>
      <point x="126" y="179" type="qcurve" smooth="yes"/>
      <point x="126" y="124"/>
      <point x="189" y="57"/>
      <point x="249" y="57" type="qcurve" smooth="yes"/>
      <point x="341" y="57"/>
      <point x="407" y="139" type="qcurve"/>
      <point x="457" y="94" type="line"/>
      <point x="369" y="-12"/>
    </contour>
  </outline>
</glyph>
<glyph name="Ocircumflexdotbelow" format="2">
  <advance width="679"/>
  <unicode hex="1ED8"/>
  <outline>
    <contour>
      <point x="306" y="61" type="qcurve" smooth="yes"/>
      <point x="399" y="61"/>
      <point x="523" y="183"/>
      <point x="545" y="293" type="qcurve" smooth="yes"/>
      <point x="565" y="393" type="line" smooth="yes"/>
      <point x="572" y="432"/>
      <point x="572" y="462" type="qcurve" smooth="yes"/>
      <point x="572" y="542"/>
      <point x="482" y="637"/>
      <point x="401" y="637" type="qcurve" smooth="yes"/>
      <point x="308" y="637"/>
      <point x="184" y="515"/>
      <point x="162" y="405" type="qcurve" smooth="yes"/>
      <point x="142" y="305" type="line" smooth="yes"/>
      <point x="135" y="266"/>
      <point x="135" y="236" type="qcurve" smooth="yes"/>
      <point x="135" y="156"/>
      <point x="225" y="61"/>
    </contour>
    <contour>
      <point x="257" y="-169" type="qcurve"/>
      <point x="215" y="-168"/>
      <point x="215" y="-134" type="qcurve" smooth="yes"/>
      <point x="215" y="-124"/>
      <point x="218" y="-113" type="qcurve"/>
      <point x="228" y="-66"/>
      <point x="274" y="-66" type="qcurve" smooth="yes"/>
      <point x="316" y="-66"/>
      <point x="316" y="-101" type="qcurve" smooth="yes"/>
      <point x="316" y="-105"/>
      <point x="313" y="-122" type="qcurve" smooth="yes"/>
      <point x="304" y="-169"/>
    </contour>
    <contour>
      <point x="263" y="793" type="line"/>
      <point x="402" y="935" type="line"/>
      <point x="496" y="935" type="line"/>
      <point x="578" y="792" type="line"/>
      <point x="535" y="762" type="line"/>
      <point x="442" y="877" type="line"/>
      <point x="303" y="761" type="line"/>
    </contour>
    <contour>
      <point x="298" y="-12" type="qcurve" smooth="yes"/>
      <point x="195" y="-12"/>
      <point x="55" y="128"/>
      <point x="55" y="260" type="qcurve" smooth="yes"/>
      <point x="55" y="434"/>
      <point x="149" y="572" type="qcurve"/>
      <point x="195" y="635"/>
      <point x="326" y="710"/>
      <point x="409" y="710" type="qcurve" smooth="yes"/>
      <point x="513" y="710"/>
      <point x="583" y="640" type="qcurve"/>
      <point x="652" y="567"/>
      <point x="652" y="438" type="qcurve" smooth="yes"/>
      <point x="652" y="264"/>
      <point x="558" y="127" type="qcurve"/>
      <point x="512" y="63"/>
      <point x="381" y="-12"/>
    </contour>
  </outline>
</glyph>
<glyph name="Uhorndotbelow" format="2">
  <advance width="656"/>
  <unicode hex="1EF0"/>
  <outline>
    <contour>
      <point x="246" y="-169" type="qcurve"/>
      <point x="204" y="-168"/>
      <point x="204" y="-134" type="qcurve" smooth="yes"/>
      <point x="204" y="-124"/>
      <point x="207" y="-113" type="qcurve"/>
      <point x="217" y="-66"/>
      <point x="263" y="-66" type="qcurve" smooth="yes"/>
      <point x="305" y="-66"/>
      <point x="305" y="-101" type="qcurve" smooth="yes"/>
      <point x="305" y="-105"/>
      <point x="302" y="-122" type="qcurve" smooth="yes"/>
      <point x="293" y="-169"/>
    </contour>
    <contour>
      <point x="280" y="-12" type="qcurve" smooth="yes"/>
      <point x="186" y="-12"/>
      <point x="82" y="93"/>
      <point x="82" y="189" type="qcurve" smooth="yes"/>
      <point x="82" y="236"/>
      <point x="93" y="294" type="qcurve" smooth="yes"/>
      <point x="174" y="698" type="line"/>
      <point x="255" y="698" type="line"/>
      <point x="163" y="241"/>
      <point x="162" y="230" type="qcurve"/>
      <point x="161" y="214"/>
      <point x="161" y="197" type="qcurve" smooth="yes"/>
      <point x="161" y="133"/>
      <point x="229" y="61"/>
      <point x="289" y="61" type="qcurve" smooth="yes"/>
      <point x="373" y="61"/>
      <point x="470" y="164"/>
      <point x="493" y="284" type="qcurve"/>
      <point x="576" y="698" type="line"/>
      <point x="666" y="698" type="line"/>
      <point x="688" y="810" type="line"/>
      <point x="756" y="810" type="line"/>
      <point x="736" y="708" type="line"/>
      <point x="732" y="681"/>
      <point x="702" y="646"/>
      <point x="667" y="646" type="qcurve" smooth="yes"/>
      <point x="646" y="646" type="line"/>
      <point x="573" y="278" type="line"/>
      <point x="543" y="120"/>
      <point x="405" y="-12"/>
    </contour>
  </outline>
</glyph>
<glyph name="quotedblright" format="2">
  <advance width="470"/>
  <unicode hex="201D"/>
  <outline>
    <contour>
      <point x="297" y="500" type="line"/>
      <point x="367" y="562"/>
      <point x="395" y="627" type="qcurve"/>
      <point x="362" y="636"/>
      <point x="362" y="664" type="qcurve" smooth="yes"/>
      <point x="362" y="750"/>
      <point x="433" y="750" type="qcurve" smooth="yes"/>
      <point x="482" y="750"/>
      <point x="482" y="710" type="qcurve" smooth="yes"/>
      <point x="482" y="658"/>
      <point x="442" y="589" type="qcurve" smooth="yes"/>
      <point x="412" y="539"/>
      <point x="362" y="500" type="qcurve"/>
    </contour>
    <contour>
      <point x="100" y="500" type="line"/>
      <point x="170" y="562"/>
      <point x="198" y="627" type="qcurve"/>
      <point x="165" y="636"/>
      <point x="165" y="664" type="qcurve" smooth="yes"/>
      <point x="165" y="750"/>
      <point x="236" y="750" type="qcurve" smooth="yes"/>
      <point x="285" y="750"/>
      <point x="285" y="710" type="qcurve" smooth="yes"/>
      <point x="285" y="658"/>
      <point x="245" y="589" type="qcurve" smooth="yes"/>
      <point x="215" y="539"/>
      <point x="165" y="500" type="qcurve"/>
    </contour>
  </outline>
</glyph>
<glyph name="perthousand" format="2">
  <advance width="1262"/>
  <unicode hex="2030"/>
  <outline>
    <contour>
      <point x="998" y="38" type="qcurve" smooth="yes"/>
      <point x="1072" y="38"/>
      <point x="1096" y="154" type="qcurve" smooth="yes"/>
      <point x="1113" y="234"/>
      <point x="1114" y="251"/>
      <point x="1114" y="259" type="qcurve" smooth="yes"/>
      <point x="1114" y="334"/>
      <point x="1049" y="334" type="qcurve" smooth="yes"/>
      <point x="975" y="334"/>
      <point x="951" y="218" type="qcurve" smooth="yes"/>
      <point x="934" y="138"/>
      <point x="933" y="121"/>
      <point x="933" y="113" type="qcurve"/>
      <point x="934" y="38"/>
    </contour>
    <contour>
      <point x="233" y="364" type="qcurve" smooth="yes"/>
      <point x="307" y="364"/>
      <point x="331" y="480" type="qcurve" smooth="yes"/>
      <point x="348" y="560"/>
      <point x="349" y="577"/>
      <point x="349" y="585" type="qcurve" smooth="yes"/>
      <point x="349" y="660"/>
      <point x="284" y="660" type="qcurve" smooth="yes"/>
      <point x="210" y="660"/>
      <point x="186" y="544" type="qcurve" smooth="yes"/>
      <point x="169" y="464"/>
      <point x="168" y="447"/>
      <point x="168" y="439" type="qcurve"/>
      <point x="169" y="364"/>
    </contour>
    <contour>
      <point x="636" y="38" type="qcurve" smooth="yes"/>
      <point x="710" y="38"/>
      <point x="734" y="154" type="qcurve" smooth="yes"/>
      <point x="751" y="234"/>
      <point x="752" y="251"/>
      <point x="752" y="259" type="qcurve" smooth="yes"/>
      <point x="752" y="334"/>
      <point x="687" y="334" type="qcurve" smooth="yes"/>
      <point x="613" y="334"/>
      <point x="589" y="218" type="qcurve" smooth="yes"/>
      <point x="572" y="138"/>
      <point x="571" y="121"/>
      <point x="571" y="113" type="qcurve"/>
      <point x="572" y="38"/>
    </contour>
    <contour>
      <point x="992" y="-12" type="qcurve" smooth="yes"/>
      <point x="932" y="-12"/>
      <point x="867" y="63"/>
      <point x="867" y="131" type="qcurve" smooth="yes"/>
      <point x="867" y="229"/>
      <point x="916" y="307" type="qcurve"/>
      <point x="968" y="384"/>
      <point x="1055" y="384" type="qcurve" smooth="yes"/>
      <point x="1114" y="384"/>
      <point x="1180" y="309"/>
      <point x="1180" y="241" type="qcurve" smooth="yes"/>
      <point x="1180" y="141"/>
      <point x="1079" y="-12"/>
    </contour>
    <contour>
      <point x="227" y="314" type="qcurve" smooth="yes"/>
      <point x="167" y="314"/>
      <point x="102" y="389"/>
      <point x="102" y="457" type="qcurve" smooth="yes"/>
      <point x="102" y="555"/>
      <point x="151" y="633" type="qcurve"/>
      <point x="203" y="710"/>
      <point x="290" y="710" type="qcurve" smooth="yes"/>
      <point x="349" y="710"/>
      <point x="415" y="635"/>
      <point x="415" y="567" type="qcurve" smooth="yes"/>
      <point x="415" y="467"/>
      <point x="314" y="314"/>
    </contour>
    <contour>
      <point x="118" y="0" type="line"/>
      <point x="722" y="698" type="line"/>
      <point x="802" y="698" type="line"/>
      <point x="198" y="0" type="line"/>
    </contour>
    <contour>
      <point x="630" y="-12" type="qcurve" smooth="yes"/>
      <point x="570" y="-12"/>
      <point x="505" y="63"/>
      <point x="505" y="131" type="qcurve" smooth="yes"/>
      <point x="505" y="229"/>
      <point x="554" y="307" type="qcurve"/>
      <point x="606" y="384"/>
      <point x="693" y="384" type="qcurve" smooth="yes"/>
      <point x="752" y="384"/>
      <point x="818" y="309"/>
      <point x="818" y="241" type="qcurve" smooth="yes"/>
      <point x="818" y="141"/>
      <point x="717" y="-12"/>
    </contour>
  </outline>
</glyph>
<glyph name="six.inferior" format="2">
  <advance width="351"/>
  <unicode hex="2086"/>
  <outline>
    <contour>
      <point x="143" y="41" type="qcurve" smooth="yes"/>
      <point x="210" y="41"/>
      <point x="226" y="111" type="qcurve"/>
      <point x="228" y="122"/>
      <point x="228" y="129" type="qcurve"/>
      <point x="225" y="185"/>
      <point x="163" y="185" type="qcurve" smooth="yes"/>
      <point x="96" y="185"/>
      <point x="80" y="114" type="qcurve"/>
      <point x="78" y="103"/>
      <point x="78" y="96" type="qcurve"/>
      <point x="82" y="41"/>
    </contour>
    <contour>
      <point x="140" y="-6" type="qcurve" smooth="yes"/>
      <point x="80" y="-6"/>
      <point x="18" y="54"/>
      <point x="18" y="107" type="qcurve" smooth="yes"/>
      <point x="18" y="187"/>
      <point x="78" y="263" type="qcurve" smooth="yes"/>
      <point x="133" y="333"/>
      <point x="202" y="369" type="qcurve"/>
      <point x="290" y="369" type="line"/>
      <point x="132" y="287"/>
      <point x="93" y="180" type="qcurve"/>
      <point x="97" y="178" type="line"/>
      <point x="130" y="231"/>
      <point x="188" y="231" type="qcurve" smooth="yes"/>
      <point x="235" y="231"/>
      <point x="290" y="176"/>
      <point x="290" y="131" type="qcurve" smooth="yes"/>
      <point x="290" y="71"/>
      <point x="208" y="-6"/>
    </contour>
  </outline>
</glyph>
<glyph name="lira" format="2">
  <advance width="577"/>
  <unicode hex="20A4"/>
  <outline>
    <contour>
      <point x="26" y="0" type="line"/>
      <point x="47" y="102" type="line"/>
      <point x="131" y="138"/>
      <point x="144" y="236" type="qcurve"/>
      <point x="51" y="236" type="line"/>
      <point x="64" y="302" type="line"/>
      <point x="148" y="302" type="line"/>
      <point x="147" y="327"/>
      <point x="142" y="374"/>
      <point x="140" y="398" type="qcurve"/>
      <point x="83" y="398" type="line"/>
      <point x="96" y="464" type="line"/>
      <point x="137" y="464" type="line"/>
      <point x="143" y="572"/>
      <point x="281" y="710"/>
      <point x="396" y="710" type="qcurve" smooth="yes"/>
      <point x="472" y="710"/>
      <point x="562" y="648"/>
      <point x="589" y="594" type="qcurve"/>
      <point x="521" y="549" type="line"/>
      <point x="502" y="589"/>
      <point x="440" y="638"/>
      <point x="387" y="638" type="qcurve" smooth="yes"/>
      <point x="313" y="638"/>
      <point x="227" y="549"/>
      <point x="221" y="464" type="qcurve"/>
      <point x="455" y="464" type="line"/>
      <point x="442" y="398" type="line"/>
      <point x="222" y="398" type="line"/>
      <point x="227" y="349"/>
      <point x="228" y="302" type="qcurve"/>
      <point x="423" y="302" type="line"/>
      <point x="410" y="236" type="line"/>
      <point x="222" y="236" type="line"/>
      <point x="209" y="179"/>
      <point x="149" y="98"/>
      <point x="115" y="77" type="qcurve"/>
      <point x="114" y="72" type="line"/>
      <point x="467" y="72" type="line"/>
      <point x="452" y="0" type="line"/>
    </contour>
  </outline>
</glyph>
<glyph name="indianrupee" format="2">
  <advance width="588"/>
  <unicode hex="20B9"/>
  <outline>
    <contour>
      <point x="335" y="0" type="line"/>
      <point x="181" y="298" type="line"/>
      <point x="60" y="298" type="line"/>
      <point x="74" y="367" type="line"/>
      <point x="280" y="367" type="line" smooth="yes"/>
      <point x="397" y="367"/>
      <point x="425" y="465" type="qcurve"/>
      <point x="95" y="465" type="line"/>
      <point x="109" y="534" type="line"/>
      <point x="436" y="534" type="line"/>
      <point x="436" y="544" type="line" smooth="yes"/>
      <point x="436" y="629"/>
      <point x="343" y="629" type="qcurve" smooth="yes"/>
      <point x="129" y="629" type="line"/>
      <point x="143" y="698" type="line"/>
      <point x="658" y="698" type="line"/>
      <point x="644" y="629" type="line"/>
      <point x="459" y="629" type="line"/>
      <point x="458" y="625" type="line"/>
      <point x="511" y="605"/>
      <point x="512" y="534" type="qcurve"/>
      <point x="625" y="534" type="line"/>
      <point x="611" y="465" type="line"/>
      <point x="504" y="465" type="line"/>
      <point x="487" y="392"/>
      <point x="370" y="298"/>
      <point x="268" y="298" type="qcurve"/>
      <point x="426" y="0" type="line"/>
    </contour>
  </outline>
</glyph>
<glyph name="seveneighths" format="2">
  <advance width="838"/>
  <unicode hex="215E"/>
  <outline>
    <contour>
      <point x="617" y="41" type="qcurve" smooth="yes"/>
      <point x="661" y="41"/>
      <point x="698" y="76"/>
      <point x="702" y="103" type="qcurve"/>
      <point x="704" y="120" type="line"/>
      <point x="701" y="169"/>
      <point x="636" y="169" type="qcurve" smooth="yes"/>
      <point x="592" y="169"/>
      <point x="555" y="134"/>
      <point x="551" y="107" type="qcurve"/>
      <point x="549" y="90" type="line"/>
      <point x="553" y="41"/>
    </contour>
    <contour>
      <point x="650" y="213" type="qcurve" smooth="yes"/>
      <point x="727" y="213"/>
      <point x="727" y="284" type="qcurve" smooth="yes"/>
      <point x="727" y="304"/>
      <point x="693" y="328"/>
      <point x="667" y="328" type="qcurve" smooth="yes"/>
      <point x="590" y="328"/>
      <point x="590" y="257" type="qcurve" smooth="yes"/>
      <point x="590" y="237"/>
      <point x="624" y="213"/>
    </contour>
    <contour>
      <point x="613" y="-6" type="qcurve" smooth="yes"/>
      <point x="553" y="-6"/>
      <point x="488" y="45"/>
      <point x="488" y="86" type="qcurve" smooth="yes"/>
      <point x="488" y="170"/>
      <point x="581" y="191" type="qcurve"/>
      <point x="582" y="196" type="line"/>
      <point x="532" y="215"/>
      <point x="532" y="265" type="qcurve" smooth="yes"/>
      <point x="532" y="309"/>
      <point x="609" y="375"/>
      <point x="673" y="375" type="qcurve" smooth="yes"/>
      <point x="725" y="375"/>
      <point x="786" y="327"/>
      <point x="786" y="289" type="qcurve" smooth="yes"/>
      <point x="786" y="252"/>
      <point x="743" y="206"/>
      <point x="707" y="196" type="qcurve"/>
      <point x="706" y="191" type="line"/>
      <point x="735" y="182"/>
      <point x="765" y="147"/>
      <point x="765" y="118" type="qcurve" smooth="yes"/>
      <point x="765" y="63"/>
      <point x="681" y="-6"/>
    </contour>
    <contour>
      <point x="74" y="0" type="line"/>
      <point x="683" y="698" type="line"/>
      <point x="756" y="698" type="line"/>
      <point x="147" y="0" type="line"/>
    </contour>
    <contour>
      <point x="371" y="644" type="line"/>
      <point x="174" y="329" type="line"/>
      <point x="106" y="329" type="line"/>
      <point x="309" y="649" type="line"/>
      <point x="101" y="649" type="line"/>
      <point x="111" y="698" type="line"/>
      <point x="382" y="698" type="line"/>
    </contour>
  </outline>
</glyph>
<glyph name="arrowrighthook" format="2">
  <advance width="820"/>
  <unicode hex="21AA"/>
  <outline>
    <contour>
      <point x="509" y="125" type="line"/>
      <point x="596" y="211" type="line"/>
      <point x="646" y="253" type="line"/>
      <point x="645" y="256" type="line"/>
      <point x="548" y="250" type="line"/>
      <point x="261" y="250" type="line" smooth="yes"/>
      <point x="177" y="250"/>
      <point x="55" y="347"/>
      <point x="55" y="436" type="qcurve" smooth="yes"/>
      <point x="55" y="524"/>
      <point x="117" y="576" type="qcurve"/>
      <point x="177" y="622"/>
      <point x="261" y="622" type="qcurve"/>
      <point x="261" y="554" type="line"/>
      <point x="209" y="554"/>
      <point x="129" y="498"/>
      <point x="129" y="436" type="qcurve" smooth="yes"/>
      <point x="129" y="375"/>
      <point x="209" y="318"/>
      <point x="261" y="318" type="qcurve" smooth="yes"/>
      <point x="548" y="318" type="line"/>
      <point x="645" y="312" type="line"/>
      <point x="646" y="315" type="line"/>
      <point x="596" y="357" type="line"/>
      <point x="509" y="443" type="line"/>
      <point x="558" y="491" type="line"/>
      <point x="765" y="284" type="line"/>
      <point x="558" y="77" type="line"/>
    </contour>
  </outline>
</glyph>
<glyph name="integral" format="2">
  <advance width="420"/>
  <unicode hex="222B"/>
  <outline>
    <contour>
      <point x="-35" y="-200" type="line"/>
      <point x="-21" y="-132" type="line"/>
      <point x="94" y="-132" type="line"/>
      <point x="245" y="621" type="line"/>
      <point x="255" y="675"/>
      <point x="312" y="740"/>
      <point x="372" y="740" type="qcurve" smooth="yes"/>
      <point x="461" y="740" type="line"/>
      <point x="447" y="672" type="line"/>
      <point x="332" y="672" type="line"/>
      <point x="180" y="-83" type="line"/>
      <point x="170" y="-137"/>
      <point x="113" y="-200"/>
      <point x="54" y="-200" type="qcurve" smooth="yes"/>
    </contour>
  </outline>
</glyph>
<glyph name="ff" format="2">
  <advance width="614"/>
  <unicode hex="FB00"/>
  <outline>
    <contour>
      <point x="-75" y="-200" type="line"/>
      <point x="-62" y="-132" type="line"/>
      <point x="31" y="-132" type="line"/>
      <point x="149" y="448" type="line"/>
      <point x="64" y="448" type="line"/>
      <point x="77" y="516" type="line"/>
      <point x="162" y="516" type="line"/>
      <point x="173" y="571"/>
      <point x="194" y="680"/>
      <point x="250" y="740"/>
      <point x="310" y="740" type="qcurve" smooth="yes"/>
      <point x="389" y="740" type="line"/>
      <point x="376" y="672" type="line"/>
      <point x="271" y="672" type="line"/>
      <point x="239" y="516" type="line"/>
      <point x="422" y="516" type="line"/>
      <point x="433" y="571"/>
      <point x="454" y="680"/>
      <point x="510" y="740"/>
      <point x="570" y="740" type="qcurve" smooth="yes"/>
      <point x="649" y="740" type="line"/>
      <point x="636" y="672" type="line"/>
      <point x="531" y="672" type="line"/>
      <point x="499" y="516" type="line"/>
      <point x="600" y="516" type="line"/>
      <point x="587" y="448" type="line"/>
      <point x="486" y="448" type="line"/>
      <point x="378" y="-86" type="line" smooth="yes"/>
      <point x="368" y="-140"/>
      <point x="312" y="-200"/>
      <point x="252" y="-200" type="qcurve" smooth="yes"/>
      <point x="185" y="-200" type="line"/>
      <point x="198" y="-132" type="line"/>
      <point x="291" y="-132" type="line"/>
      <point x="409" y="448" type="line"/>
      <point x="226" y="448" type="line"/>
      <point x="118" y="-86" type="line" smooth="yes"/>
      <point x="108" y="-140"/>
      <point x="52" y="-200"/>
      <point x="-8" y="-200" type="qcurve" smooth="yes"/>
    </contour>
  </outline>
</glyph>
<glyph name="fi" format="2">
  <advance width="555"/>
  <unicode hex="FB01"/>
  <outline>
    <contour>
      <point x="497" y="637" type="qcurve" smooth="yes"/>
      <point x="455" y="637"/>
      <point x="455" y="672" type="qcurve" smooth="yes"/>
      <point x="455" y="678"/>
      <point x="457" y="694" type="qcurve"/>
      <point x="461" y="717"/>
      <point x="476" y="730" type="qcurve" smooth="yes"/>
      <point x="488" y="740"/>
      <point x="513" y="740" type="qcurve" smooth="yes"/>
      <point x="555" y="740"/>
      <point x="555" y="705" type="qcurve" smooth="yes"/>
      <point x="555" y="696" type="line"/>
      <point x="551" y="637"/>
    </contour>
    <contour>
      <point x="-75" y="-200" type="line"/>
      <point x="-62" y="-132" type="line"/>
      <point x="31" y="-132" type="line"/>
      <point x="149" y="448" type="line"/>
      <point x="64" y="448" type="line"/>
      <point x="77" y="516" type="line"/>
      <point x="162" y="516" type="line"/>
      <point x="173" y="571"/>
      <point x="194" y="680"/>
      <point x="250" y="740"/>
      <point x="310" y="740" type="qcurve" smooth="yes"/>
      <point x="389" y="740" type="line"/>
      <point x="376" y="672" type="line"/>
      <point x="271" y="672" type="line"/>
      <point x="239" y="516" type="line"/>
      <point x="507" y="516" type="line"/>
      <point x="418" y="68" type="line"/>
      <point x="491" y="68" type="line"/>
      <point x="478" y="0" type="line"/>
      <point x="411" y="0" type="line" smooth="yes"/>
      <point x="376" y="0"/>
      <point x="342" y="35"/>
      <point x="342" y="64" type="qcurve" smooth="yes"/>
      <point x="342" y="74"/>
      <point x="344" y="84" type="qcurve" smooth="yes"/>
      <point x="417" y="448" type="line"/>
      <point x="226" y="448" type="line"/>
      <point x="118" y="-86" type="line"/>
      <point x="108" y="-140"/>
      <point x="52" y="-200"/>
      <point x="-8" y="-200" type="qcurve" smooth="yes"/>
    </contour>
  </outline>
</glyph>
<glyph name="fl" format="2">
  <advance width="555"/>
  <unicode hex="FB02"/>
  <outline>
    <contour>
      <point x="412" y="0" type="line" smooth="yes"/>
      <point x="377" y="0"/>
      <point x="342" y="35"/>
      <point x="342" y="63" type="qcurve" smooth="yes"/>
      <point x="342" y="72"/>
      <point x="462" y="672" type="qcurve"/>
      <point x="271" y="672" type="line"/>
      <point x="239" y="516" type="line"/>
      <point x="340" y="516" type="line"/>
      <point x="327" y="448" type="line"/>
      <point x="226" y="448" type="line"/>
      <point x="118" y="-86" type="line" smooth="yes"/>
      <point x="108" y="-140"/>
      <point x="52" y="-200"/>
      <point x="-8" y="-200" type="qcurve" smooth="yes"/>
      <point x="-75" y="-200" type="line"/>
      <point x="-62" y="-132" type="line"/>
      <point x="31" y="-132" type="line"/>
      <point x="149" y="448" type="line"/>
      <point x="64" y="448" type="line"/>
      <point x="77" y="516" type="line"/>
      <point x="162" y="516" type="line"/>
      <point x="173" y="571"/>
      <point x="194" y="680"/>
      <point x="250" y="740"/>
      <point x="310" y="740" type="qcurve" smooth="yes"/>
      <point x="553" y="740" type="line"/>
      <point x="418" y="68" type="line"/>
      <point x="496" y="68" type="line"/>
      <point x="483" y="0" type="line"/>
    </contour>
  </outline>
</glyph>
<glyph name="eight.subs" format="2">
  <advance width="371"/>
  <outline>
    <contour>
      <point x="207" y="511" type="qcurve" smooth="yes"/>
      <point x="251" y="511"/>
      <point x="288" y="546"/>
      <point x="292" y="573" type="qcurve"/>
      <point x="294" y="590" type="line"/>
      <point x="291" y="639"/>
      <point x="226" y="639" type="qcurve" smooth="yes"/>
      <point x="182" y="639"/>
      <point x="145" y="604"/>
      <point x="141" y="577" type="qcurve"/>
      <point x="139" y="560" type="line"/>
      <point x="143" y="511"/>
    </contour>
    <contour>
      <point x="240" y="683" type="qcurve" smooth="yes"/>
      <point x="317" y="683"/>
      <point x="317" y="754" type="qcurve" smooth="yes"/>
      <point x="317" y="774"/>
      <point x="283" y="798"/>
      <point x="257" y="798" type="qcurve" smooth="yes"/>
      <point x="180" y="798"/>
      <point x="180" y="727" type="qcurve" smooth="yes"/>
      <point x="180" y="707"/>
      <point x="214" y="683"/>
    </contour>
    <contour>
      <point x="203" y="464" type="qcurve" smooth="yes"/>
      <point x="143" y="464"/>
      <point x="78" y="515"/>
      <point x="78" y="556" type="qcurve" smooth="yes"/>
      <point x="78" y="640"/>
      <point x="171" y="661" type="qcurve"/>
      <point x="172" y="666" type="line"/>
      <point x="122" y="685"/>
      <point x="122" y="735" type="qcurve" smooth="yes"/>
      <point x="122" y="779"/>
      <point x="199" y="845"/>
      <point x="263" y="845" type="qcurve" smooth="yes"/>
      <point x="315" y="845"/>
      <point x="376" y="797"/>
      <point x="376" y="759" type="qcurve" smooth="yes"/>
      <point x="376" y="722"/>
      <point x="333" y="676"/>
      <point x="297" y="666" type="qcurve"/>
      <point x="296" y="661" type="line"/>
      <point x="325" y="652"/>
      <point x="355" y="617"/>
      <point x="355" y="588" type="qcurve" smooth="yes"/>
      <point x="355" y="533"/>
      <point x="271" y="464"/>
    </contour>
  </outline>
</glyph>
<glyph name="five.sups" format="2">
  <advance width="343"/>
  <outline>
    <contour>
      <point x="193" y="-394" type="qcurve" smooth="yes"/>
      <point x="96" y="-394"/>
      <point x="67" y="-326" type="qcurve"/>
      <point x="114" y="-294" type="line"/>
      <point x="124" y="-318"/>
      <point x="159" y="-345"/>
      <point x="194" y="-345" type="qcurve" smooth="yes"/>
      <point x="237" y="-345"/>
      <point x="255" y="-325" type="qcurve" smooth="yes"/>
      <point x="280" y="-297"/>
      <point x="280" y="-253" type="qcurve" smooth="yes"/>
      <point x="280" y="-231"/>
      <point x="250" y="-202"/>
      <point x="220" y="-202" type="qcurve" smooth="yes"/>
      <point x="174" y="-202"/>
      <point x="148" y="-231" type="qcurve"/>
      <point x="94" y="-224" type="line"/>
      <point x="152" y="-19" type="line"/>
      <point x="370" y="-19" type="line"/>
      <point x="360" y="-68" type="line"/>
      <point x="190" y="-68" type="line"/>
      <point x="150" y="-203" type="line"/>
      <point x="153" y="-203" type="line"/>
      <point x="188" y="-154"/>
      <point x="246" y="-154" type="qcurve" smooth="yes"/>
      <point x="289" y="-154"/>
      <point x="343" y="-206"/>
      <point x="343" y="-255" type="qcurve" smooth="yes"/>
      <point x="343" y="-310"/>
      <point x="309" y="-349" type="qcurve" smooth="yes"/>
      <point x="270" y="-394"/>
    </contour>
  </outline>
</glyph>
<glyph name="four.subs" format="2">
  <advance width="339"/>
  <outline>
    <contour>
      <point x="276" y="770" type="line"/>
      <point x="273" y="770" type="line"/>
      <point x="114" y="589" type="line"/>
      <point x="240" y="589" type="line"/>
    </contour>
    <contour>
      <point x="216" y="470" type="line"/>
      <point x="231" y="543" type="line"/>
      <point x="49" y="543" type="line"/>
      <point x="59" y="595" type="line"/>
      <point x="273" y="839" type="line"/>
      <point x="348" y="839" type="line"/>
      <point x="298" y="589" type="line"/>
      <point x="349" y="589" type="line"/>
      <point x="340" y="543" type="line"/>
      <point x="289" y="543" type="line"/>
      <point x="274" y="470" type="line"/>
    </contour>
  </outline>
</glyph>
<glyph name="one.subs" format="2">
  <advance width="339"/>
  <outline>
    <contour>
      <point x="229" y="470" type="line"/>
      <point x="169" y="470" type="line"/>
      <point x="232" y="782" type="line"/>
      <point x="143" y="735" type="line"/>
      <point x="155" y="793" type="line"/>
      <point x="240" y="839" type="line"/>
      <point x="303" y="839" type="line"/>
    </contour>
  </outline>
</glyph>
<glyph name="one.sups" format="2">
  <advance width="339"/>
  <outline>
    <contour>
      <point x="229" y="-388" type="line"/>
      <point x="169" y="-388" type="line"/>
      <point x="232" y="-76" type="line"/>
      <point x="143" y="-123" type="line"/>
      <point x="155" y="-65" type="line"/>
      <point x="240" y="-19" type="line"/>
      <point x="303" y="-19" type="line"/>
    </contour>
  </outline>
</glyph>
<glyph name="seven.subs" format="2">
  <advance width="344"/>
  <outline>
    <contour>
      <point x="174" y="470" type="line"/>
      <point x="106" y="470" type="line"/>
      <point x="309" y="790" type="line"/>
      <point x="101" y="790" type="line"/>
      <point x="111" y="839" type="line"/>
      <point x="382" y="839" type="line"/>
      <point x="371" y="785" type="line"/>
    </contour>
  </outline>
</glyph>
<glyph name="u03BC" format="2">
  <advance width="568"/>
  <outline>
    <contour>
      <point x="-43" y="-200" type="line"/>
      <point x="101" y="516" type="line"/>
      <point x="178" y="516" type="line"/>
      <point x="114" y="198" type="line" smooth="yes"/>
      <point x="111" y="183"/>
      <point x="109" y="154"/>
      <point x="109" y="145" type="qcurve" smooth="yes"/>
      <point x="109" y="102"/>
      <point x="144" y="58"/>
      <point x="186" y="58" type="qcurve" smooth="yes"/>
      <point x="239" y="58"/>
      <point x="279" y="99" type="qcurve" smooth="yes"/>
      <point x="307" y="128"/>
      <point x="341" y="199"/>
      <point x="347" y="228" type="qcurve" smooth="yes"/>
      <point x="405" y="516" type="line"/>
      <point x="482" y="516" type="line"/>
      <point x="392" y="68" type="line"/>
      <point x="465" y="68" type="line"/>
      <point x="452" y="0" type="line"/>
      <point x="383" y="0" type="line" smooth="yes"/>
      <point x="349" y="0"/>
      <point x="316" y="35"/>
      <point x="316" y="63" type="qcurve" smooth="yes"/>
      <point x="316" y="73"/>
      <point x="320" y="92" type="qcurve" smooth="yes"/>
      <point x="322" y="102" type="line"/>
      <point x="317" y="102" type="line"/>
      <point x="290" y="43"/>
      <point x="226" y="-12"/>
      <point x="179" y="-12" type="qcurve" smooth="yes"/>
      <point x="127" y="-12"/>
      <point x="81" y="49"/>
      <point x="76" y="102" type="qcurve"/>
      <point x="71" y="102" type="line"/>
      <point x="64" y="-52" type="line"/>
      <point x="34" y="-200" type="line"/>
    </contour>
  </outline>
</glyph>
<glyph name="zero.subs" format="2">
  <advance width="358"/>
  <outline>
    <contour>
      <point x="205" y="514" type="qcurve" smooth="yes"/>
      <point x="243" y="514"/>
      <point x="289" y="569"/>
      <point x="298" y="615" type="qcurve" smooth="yes"/>
      <point x="314" y="695" type="line"/>
      <point x="318" y="712"/>
      <point x="318" y="730" type="qcurve" smooth="yes"/>
      <point x="318" y="795"/>
      <point x="254" y="795" type="qcurve" smooth="yes"/>
      <point x="216" y="795"/>
      <point x="170" y="740"/>
      <point x="161" y="694" type="qcurve" smooth="yes"/>
      <point x="145" y="614" type="line"/>
      <point x="141" y="598"/>
      <point x="141" y="581" type="qcurve" smooth="yes"/>
      <point x="141" y="514"/>
    </contour>
    <contour>
      <point x="200" y="464" type="qcurve" smooth="yes"/>
      <point x="143" y="464"/>
      <point x="80" y="535"/>
      <point x="80" y="599" type="qcurve" smooth="yes"/>
      <point x="80" y="695"/>
      <point x="127" y="770" type="qcurve"/>
      <point x="177" y="845"/>
      <point x="259" y="845" type="qcurve" smooth="yes"/>
      <point x="316" y="845"/>
      <point x="379" y="774"/>
      <point x="379" y="710" type="qcurve" smooth="yes"/>
      <point x="379" y="614"/>
      <point x="333" y="539" type="qcurve"/>
      <point x="310" y="505"/>
      <point x="243" y="464"/>
    </contour>
  </outline>
</glyph>
